<?xml version="1.0" encoding="UTF-8"?>
<svg id="Layer_2" data-name="Layer 2" xmlns="http://www.w3.org/2000/svg" viewBox="0 0 39.97 68.58">
  <defs>
    <style>
      .cls-1 {
        fill: #3f677f;
      }

      .cls-2 {
        fill: #5995ad;
      }

      .cls-3 {
        opacity: .55;
      }

      .cls-4 {
        fill: #6bb7ce;
      }

      .cls-5 {
        fill: #457584;
      }

      .cls-6 {
        fill: #4c819b;
      }
    </style>
  </defs>
  <g id="Layer_1-2" data-name="Layer 1">
    <g class="cls-3">
      <path class="cls-5" d="M36.5,29.47c.86-21.45-4.29-27.19-12.98-29.04-2.55-.54-5.19-.39-7.65.45C4.15,4.9,3.44,15.77,3.44,30.48l6.29-.21c-.86-11.66.03-18.61,5.43-21.92,2.49-1.53,5.23-1.93,7.93-.81,5.02,2.08,7.06,8.14,5.92,22.31l7.48-.38Z"/>
      <polygon class="cls-1" points="35.62 27.85 39.97 27.85 39.97 65.84 35.62 68.58 35.62 27.85"/>
      <path class="cls-6" d="M35.62,27.85v40.73c-11.98-1.46-23.86-3.82-35.62-7.29V28.23s35.62-.38,35.62-.38Z"/>
      <path class="cls-2" d="M35.62,27.85C36.42,7.96,30.91,2.02,22.82.3c-2.37-.5-4.83-.36-7.13.42C4.78,4.45,3.66,14.54,3.66,28.19h5.53c-.8-10.81.82-17.47,5.85-20.54,2.32-1.42,5.15-1.81,7.71-.9,5.14,1.82,7.48,8.03,6.42,21.17l6.44-.07Z"/>
      <path class="cls-4" d="M4.67,28.18h0c.13-6.94.52-12.42,1.96-16.61,1.61-4.67,4.47-7.55,8.98-9.06,1.11-.37,2.29-.56,3.53-.56,3.31,0,6.53,1.38,8.4,3.6,3.53,4.19,5.55,9.39,4.67,22.33h-1.02s0-.07,0-.07c.86-12.6-1.06-17.61-4.43-21.61-1.68-2-4.6-3.24-7.62-3.24-1.12,0-2.2.17-3.2.51C6.8,6.54,5.93,15.65,5.69,28.2h0l-1.02-.02Z"/>
      <path class="cls-4" d="M5.22,28.19h-.09c.13-6.9.51-12.33,1.94-16.47,1.56-4.52,4.32-7.31,8.69-8.77,3.99-1.34,8.91-.09,11.43,2.9,3.46,4.1,5.43,9.22,4.56,22h-.09c.87-12.76-1.09-17.86-4.54-21.94-2.5-2.96-7.37-4.2-11.33-2.87C6.37,6.19,5.47,15.45,5.22,28.19Z"/>
      <path class="cls-2" d="M1.45,29.8c10.04,6.04,21.14,5.32,32.96,0"/>
      <path class="cls-1" d="M18.54,43.84l-.2,6.2c-.52,2.3-1.79,4.27-3.4,5.37-.13.09-.55.37-.67.39-.05,0-.06,0-.11-.01-.14-.05-.43-.25-.56-.35-1.65-1.16-2.84-3.37-3.1-5.83l.21-6c1.29-.49,2.59-.95,3.89-1.39l3.95,1.62ZM16.53,48.69c-.06-.09-.32-.33-.3-.43.01-.06.29-.36.35-.44.5-.71.9-1.76.97-2.72,0-.11.04-.48-.02-.54-1.65-1.01-3.59-1.17-5.35-.41-.08.04-.48.21-.51.28,0,.36-.03.7,0,1.06.1,1.01.49,2,1.05,2.68-.5.46-.99,1.18-1.06,2-.16,1.75.99,3.29,2.07,4.01.1.06.51.32.59.3.14-.02.64-.34.78-.45,1.49-1.03,2.79-3.38,1.41-5.36Z"/>
    </g>
  </g>
</svg>