<svg width="1389" height="699" viewBox="0 0 1389 699" fill="none" xmlns="http://www.w3.org/2000/svg">
<g clip-path="url(#clip0_65_4)">
<path opacity="0.1" d="M1295.59 985.591C1295.59 985.591 1532.6 423.267 1130.8 214.485C1029.4 161.797 927.59 168.317 836.648 209.7M836.648 209.7C567.216 332.307 393.19 760.938 608.051 862.589C855.164 979.497 1072.54 490.771 836.648 209.7ZM836.648 209.7C798.206 163.895 747.724 123.605 683.369 92.3498C510.732 8.50294 348.567 42.243 225.068 122.995M225.068 122.995C20.0471 257.051 -78.4146 520.672 58.6725 590.959C252.781 690.483 400.393 314.25 225.068 122.995ZM225.068 122.995C201.985 97.8152 173.307 75.8422 138.399 58.5828C-161.655 -89.7725 -365.399 294.246 -365.399 294.246" stroke="#F5EEDF" stroke-width="47.6795"/>
</g>
<defs>
<clipPath id="clip0_65_4">
<rect width="1389" height="699" fill="white"/>
</clipPath>
</defs>
</svg>
