<?xml version="1.0" encoding="UTF-8"?>
<svg id="Layer_2" data-name="Layer 2" xmlns="http://www.w3.org/2000/svg" viewBox="0 0 375.55 521.67">
  <g id="Layer_1-2" data-name="Layer 1">
    <path d="M329.22,193.63c22.8-2.84,40.08,4.8,43.49,28.91-5.25,83.25,8.04,177.13.44,259.11-2.69,29-14.74,33.33-42.08,35.37-76.39,5.69-214.23,6.7-289.87,0-26.08-2.31-36.25-8.82-38.72-35.36-7.68-82.7,5.34-177.98.93-261.98,4.02-22.26,22.21-28.71,43-26.03-1.25-46.25-2.72-89.49,23.47-129.74C143.69-49.51,317.99-2.65,329.19,131.37c1.68,20.13-1.1,41.94.03,62.26ZM315.77,193.62v-58.93c0-112.84-160.03-165.37-230.43-68.8-30.77,42.21-17.83,80.3-25.47,127.7l26.93.02v-72.4c0-43.92,61.75-82.9,102.69-82.79,39.58.1,99.34,41.18,99.34,82.79v72.4h26.94ZM275.36,193.62v-65.66c0-4.93-9.68-25.1-12.91-30.86-32.99-58.86-119.14-57.54-150.45,2.19-2.87,5.48-11.74,24.2-11.74,28.67v65.66h175.1ZM19.45,215.5v279.49l5.05,5.05h326.63l5.05-5.05V215.5c-6.77-7.18-19.52-6.81-28.96-7.06-68.77-1.8-139.25,2.14-208.55,2.11-14.67,0-95.28-7.01-99.22,4.95Z"/>
    <path d="M183.66,275.05c35.26-4.07,62.26,36.85,45.24,69.09-3.54,6.7-11.92,11.68-13.46,16.84-5.78,19.29,10.52,68.29-22.45,71.93-46.48,5.13-25.85-48.8-32.79-71.93-1.62-5.39-9.21-9.1-12.3-14.64-16.69-29.9,1.17-67.3,35.77-71.3ZM177.71,356.93v57.24c0,3.25,7.83,5.66,11.77,5.26,20.54-2.07,7.2-48.3,8.95-58.33,2.09-12,20.99-19.65,21.45-37.79,1.14-44.96-70.35-44.93-62.17,6.47,2.67,16.76,18.37,17.72,20,27.15Z"/>
  </g>
</svg>