<svg transform="scale(1)" id="_0979_Password_6" xmlns="http://www.w3.org/2000/svg" viewBox="0 0 500 500" class="show_show__wrapper__graphic__5Waiy "><title>React</title><defs><style>.cls-1{fill:#fff;}.cls-2{fill:#d4c3ab;}.cls-3{opacity:.22;}.cls-4{opacity:.11;}.cls-5{fill:#110f0f;}</style></defs><g id="laptop"><g><path class="cls-5" d="M409.72,91.42c-1.74-1.87-4.29-2.37-6.69-2.78-18.2-3.07-288.57-3.07-306.77,0-2.39,.4-4.95,.91-6.69,2.78-2.32,2.5-2.4,6.53-2.32,10.12,.98,47.57,1.96,95.13,2.93,142.7,.48,23.58,.97,47.2,3.47,70.62,.49,4.57,1.41,9.75,4.98,12.08,2.28,1.48,6.38,1.8,9.01,1.95,20.87,1.16,263.13,1.16,284,0,2.64-.15,6.73-.46,9.01-1.95,3.57-2.33,4.49-7.51,4.98-12.08,2.5-23.42,2.99-47.04,3.47-70.62,.98-47.57,1.96-95.13,2.93-142.7,.07-3.59,0-7.62-2.32-10.12Z"></path><path class="cls-5" d="M411.06,90.82c-3.04-3.03-7.81-3.27-11.9-3.54-3.5-.23-7-.37-10.5-.49-11.39-.4-22.8-.59-34.19-.76-15.6-.23-31.19-.37-46.79-.46-17.77-.11-35.55-.16-53.32-.17-17.93,0-35.86,.03-53.79,.12-16.11,.08-32.21,.21-48.32,.42-12.19,.16-24.37,.35-36.56,.71-6.26,.19-12.71,.1-18.92,1.01-2.14,.31-4.34,.75-6.24,1.81-2.58,1.43-3.97,3.9-4.46,6.75-.63,3.68-.22,7.59-.15,11.31,.09,4.32,.18,8.65,.27,12.97,.35,16.97,.7,33.95,1.05,50.92,.7,33.97,1.05,67.96,2.23,101.91,.29,8.33,.68,16.65,1.26,24.96,.29,4.17,.63,8.33,1.03,12.48,.33,3.49,.53,7.09,1.51,10.48,.74,2.57,2.05,5.13,4.4,6.56,2.4,1.45,5.5,1.74,8.24,1.94,1.33,.1,2.66,.15,3.99,.19,8.57,.27,17.15,.31,25.73,.39,14.37,.13,28.75,.2,43.12,.25,17.53,.06,35.06,.1,52.59,.11,18.43,.01,36.86,0,55.3-.03,16.69-.03,33.38-.08,50.07-.16,12.53-.06,25.07-.14,37.6-.3,4.03-.05,8.06-.11,12.09-.21,4.55-.11,9.58,.07,13.79-1.76,5.7-2.47,6.48-9.37,7.04-14.8,.87-8.42,1.49-16.86,1.94-25.3,.91-16.83,1.18-33.68,1.53-50.53,.7-34.16,1.4-68.32,2.11-102.48,.17-8.22,.34-16.43,.51-24.65,.08-3.77,.28-7.55,.19-11.32-.06-2.97-.45-6.01-2.45-8.34-.75-.87-3.52,.22-2.67,1.2,2.28,2.64,2.26,6.36,2.2,9.67-.07,4.11-.17,8.22-.25,12.32-.17,8.43-.35,16.86-.52,25.3-.34,16.76-.69,33.51-1.03,50.27-.34,16.76-.69,33.51-1.03,50.27-.34,16.73-.63,33.47-1.58,50.18-.46,8.23-1.08,16.46-1.95,24.66-.32,3.04-.69,6.27-2.15,9.01-1.55,2.91-4.15,3.67-7.25,4.03s-6.36,.38-9.54,.45c-9.55,.21-19.65,.28-29.43,.35-14.99,.11-29.99,.17-44.98,.22-17.7,.05-35.4,.08-53.1,.09-17.97,0-35.94,0-53.92-.05-15.95-.04-31.89-.09-47.84-.18-11.59-.07-23.19-.14-34.78-.32-3.39-.05-6.79-.1-10.18-.21-1.09-.03-2.17-.07-3.26-.14-2.74-.16-6.09-.28-8.37-2-2.5-1.89-3.37-5.28-3.88-8.21-1.34-7.67-1.64-15.65-2.14-23.42-.54-8.37-.89-16.75-1.16-25.13-.53-16.79-.78-33.59-1.13-50.38-.69-33.51-1.38-67.03-2.07-100.54-.09-4.22-.17-8.43-.26-12.65-.07-3.48-.48-7.21,.37-10.63,.9-3.61,3.54-4.87,6.97-5.41,.36-.06,.72-.1,1.09-.15,2.51-.29,5.05-.39,7.57-.51,9.77-.46,19.55-.65,29.33-.83,14.4-.26,28.8-.42,43.2-.54,17.07-.14,34.14-.22,51.22-.25,17.81-.04,35.62-.03,53.44,.03,16.67,.06,33.35,.15,50.02,.32,13.53,.13,27.07,.31,40.6,.6,8.42,.19,16.87,.34,25.28,.89,3.5,.23,7.92,.32,10.5,2.89,.82,.81,3.57-.31,2.67-1.2Z"></path></g><g><path class="cls-1" d="M397.7,117.51c-1.61-1.45-3.97-1.84-6.19-2.16-16.83-2.39-266.9-2.39-283.73,0-2.21,.31-4.58,.7-6.19,2.16-2.14,1.94-2.22,5.07-2.15,7.86,.9,36.93,1.81,73.85,2.71,110.78,.45,18.3,.9,36.64,3.21,54.82,.45,3.55,1.3,7.57,4.61,9.38,2.11,1.15,5.9,1.4,8.33,1.51,19.3,.9,243.37,.9,262.67,0,2.44-.11,6.23-.36,8.33-1.51,3.3-1.81,4.16-5.83,4.61-9.38,2.31-18.18,2.76-36.52,3.21-54.82,.9-36.93,1.81-73.85,2.71-110.78,.07-2.79,0-5.92-2.15-7.86Z"></path><path class="cls-1" d="M398.82,116.68c-2.87-2.39-7.16-2.49-10.79-2.69-3.07-.17-6.13-.27-9.2-.37-9.98-.3-19.97-.45-29.95-.58-13.62-.18-27.25-.29-40.87-.36-15.73-.09-31.45-.14-47.18-.15-16.06-.02-32.11,0-48.17,.06-14.77,.05-29.54,.13-44.31,.27-11.85,.11-23.7,.24-35.55,.48-7.2,.14-14.41,.25-21.6,.69-4.37,.27-9.91,.6-12.18,4.89-1.39,2.62-1.06,5.81-.99,8.66,.09,3.79,.19,7.58,.28,11.38,.18,7.49,.37,14.97,.55,22.46,.74,30.26,1.27,60.54,2.27,90.8,.24,7.37,.58,14.74,1.12,22.1,.27,3.73,.6,7.46,.99,11.18,.33,3.14,.53,6.41,1.34,9.48,.63,2.35,1.8,4.67,3.92,6,2.24,1.41,5.13,1.66,7.7,1.84,1.3,.09,2.61,.13,3.92,.17,7.45,.2,14.91,.24,22.37,.3,12.46,.1,24.92,.15,37.38,.2,15.48,.05,30.95,.08,46.43,.1,16.34,.02,32.67,.01,49.01,0,15.37-.02,30.74-.05,46.11-.1,12.24-.04,24.49-.1,36.73-.2,7.04-.06,14.08-.08,21.12-.3,2.4-.07,4.82-.19,7.18-.64,2.54-.49,4.88-1.53,6.43-3.68,1.47-2.03,2.06-4.55,2.41-6.99,2.14-14.66,2.6-29.61,3.03-44.4,.87-30.28,1.5-60.58,2.24-90.86,.18-7.19,.35-14.37,.53-21.56,.09-3.49,.24-6.98,.25-10.47,0-2.7-.29-5.5-2.3-7.49-.92-.9-3.66,.28-2.66,1.27,2.3,2.26,2.06,5.56,1.98,8.54-.09,3.69-.18,7.39-.27,11.08-.18,7.49-.37,14.97-.55,22.46-.37,14.97-.73,29.94-1.1,44.91s-.66,29.62-1.11,44.43c-.23,7.38-.52,14.76-1.02,22.13-.47,6.98-.9,14.1-2.07,21-.42,2.47-1.2,5.48-3.54,6.83-2.16,1.24-5.17,1.2-7.59,1.31-.88,.04-1.76,.06-2.63,.09-2.98,.08-5.97,.12-8.96,.16-10.12,.13-20.24,.19-30.36,.24-14.01,.07-28.02,.11-42.02,.14-15.94,.03-31.88,.05-47.82,.05-15.87,0-31.74-.02-47.61-.05-14-.03-28-.07-42-.15-10-.05-20-.11-29.99-.24-2.66-.03-5.64-.08-8.55-.15-1.17-.03-2.33-.07-3.49-.14-2.65-.16-5.93-.27-7.93-2.26-1.8-1.79-2.39-4.5-2.75-6.92-2.18-14.42-2.6-29.18-3.02-43.73-.44-14.91-.75-29.83-1.11-44.75-.37-14.97-.73-29.94-1.1-44.91-.18-7.39-.36-14.77-.54-22.16-.09-3.74-.22-7.48-.27-11.22-.04-2.72,.07-6.11,2.87-7.47,2.44-1.19,5.81-1.16,8.52-1.31,3.15-.17,6.3-.27,9.45-.36,9.91-.29,19.83-.43,29.75-.56,13.56-.17,27.12-.28,40.68-.36,15.43-.09,30.86-.13,46.29-.15,15.85-.02,31.7,0,47.55,.06,14.62,.05,29.24,.13,43.85,.26,11.7,.11,23.39,.24,35.09,.46,7.35,.14,14.72,.26,22.06,.67,3.17,.18,7.07,.2,9.56,2.28,.97,.8,3.51-.6,2.24-1.65Z"></path></g><g class="cls-3"><path class="cls-1" d="M272.16,97.09c-1.6-.48-3.49,.23-4.37,1.66-.47,.76-.66,1.66-.76,2.54-.05,.45-.08,.91,.08,1.33,.19,.51,.62,.88,1.09,1.16,1.89,1.13,4.59,.76,6.01-.92,.21-.25,.4-.53,.5-.84,.11-.34,.12-.7,.14-1.06,.02-.84,.04-1.71-.28-2.49-.33-.78-1.11-1.43-1.95-1.33"></path><path class="cls-1" d="M273.01,96.14c-2.11-.6-4.54,.06-6.02,1.69-.71,.78-1.09,1.76-1.29,2.78s-.33,2.24,.38,3.13c1.2,1.5,3.53,1.92,5.33,1.62,2-.33,4.54-1.62,4.87-3.86,.08-.54,.07-1.11,.05-1.66-.02-.64-.08-1.28-.35-1.87-.58-1.27-1.82-1.96-3.21-1.85-.62,.05-1.52,.43-1.61,1.14s.78,.94,1.32,.89c.27-.02,.01,0-.03,0-.21,.02-.07-.02,.05,.02,.17,.06-.13-.09,.03,.02,.08,.05,.16,.1,.23,.16-.09-.07,.17,.2,.19,.23,.12,.16,.18,.26,.22,.39,.26,.75,.24,1.52,.21,2.3-.02,.37-.05,.64-.19,.93,0,.02-.12,.19-.02,.06-.05,.07-.1,.13-.15,.19-.05,.05-.09,.11-.14,.16-.03,.03-.29,.27-.06,.07-.11,.09-.22,.18-.34,.26-.01,0-.3,.21-.11,.08,.17-.11-.03,.01-.07,.04-.09,.05-.34,.21-.44,.2,.02,0,.36-.11,.07-.03-.09,.02-.17,.05-.26,.07-.06,.02-.2,.08-.26,.06,.02,0,.37-.05,.07-.01-.14,.02-.29,.03-.43,.04-.07,0-.14,0-.22,0,.31-.01,.12,0,.05,0-.18-.02-.36-.04-.54-.06-.34-.04,.16,.05-.04,0-.07-.02-.14-.04-.21-.06-.16-.05-.31-.1-.46-.16-.04-.01-.2-.1-.02,0-.06-.03-.13-.07-.19-.1-.17-.09-.33-.2-.48-.32-.1-.08-.09-.07-.21-.22-.05-.06-.1-.12-.13-.19,.06,.09-.03-.06-.03-.07-.15-.37-.1-.75-.06-1.13,.09-.75,.22-1.44,.6-2.1,.04-.07,.08-.14,.13-.21-.14,.2,.07-.08,.09-.09,.05-.05,.1-.11,.15-.16s.29-.23,.07-.07c.15-.1,.29-.22,.44-.31-.04,.03-.27,.14-.04,.03,.1-.05,.2-.09,.3-.14,.19-.08-.01-.05-.07,.02,.04-.05,.26-.07,.31-.09,.16-.05,.08-.09-.07,0,.06-.04,.2-.03,.27-.03,.09,0,.18-.01,.27-.01-.18,0-.16,0,0,.01,.09,0,.18,.02,.27,.03-.22-.03-.01,0,.09,.03,.69,.2,1.56,0,2.05-.55,.42-.48,.29-1.15-.36-1.34h0Z"></path></g><g class="cls-3"><path class="cls-1" d="M224.56,100.56c10.82-.67,21.69-.68,32.51-.04"></path><path class="cls-1" d="M224.37,101.4c10.71-.65,21.44-.65,32.15-.02,.59,.03,1.63-.21,1.91-.8s-.25-.87-.8-.9c-10.95-.64-21.93-.61-32.88,.05-.51,.03-1.56,.39-1.64,1.01-.08,.67,.82,.69,1.26,.66h0Z"></path></g><g><path class="cls-5" d="M485.04,441.46c-1.65-7.73-6.96-14.35-12.12-20.69-18.48-22.69-36.95-45.37-55.43-68.06-3.07-3.77-6.14-7.54-9.44-11.14-4.23-4.61-9.1-9.11-15.39-11-4.26-1.28-8.85-1.27-13.34-1.25-43.12,.22-215.51,.22-258.63,0-4.49-.02-9.08-.03-13.34,1.25-6.29,1.9-11.16,6.39-15.39,11-3.3,3.6-6.37,7.37-9.44,11.14-18.48,22.69-36.95,45.37-55.43,68.06-5.16,6.34-10.47,12.96-12.12,20.69-.32,1.51,5.44,14.98,5.97,16.43,1.44,3.93,6.92,5.02,11.48,5.45,34.82,3.24,400.36,3.24,435.18,0,4.56-.43,10.04-1.52,11.48-5.45,.53-1.46,6.3-14.93,5.97-16.43Z"></path><path class="cls-5" d="M486.49,441.07c-1.63-7.09-5.93-13.02-10.41-18.6-5.27-6.58-10.64-13.08-15.96-19.61-10.71-13.15-21.43-26.31-32.14-39.46-5.35-6.57-10.58-13.25-16.15-19.63-4.49-5.15-9.38-10.36-15.81-13.04-7.83-3.26-17.16-2.1-25.52-2.07-15.34,.05-30.69,.07-46.03,.09-20.23,.02-40.47,.03-60.7,.04-21.07,0-42.14,0-63.21-.02-17.78-.01-35.55-.03-53.33-.07-6.49-.01-12.98-.03-19.46-.05-9.6-.04-19.42-.72-27.85,4.73-6.16,3.98-10.95,9.9-15.58,15.5-5.43,6.57-10.77,13.2-16.15,19.81-10.71,13.15-21.43,26.31-32.14,39.46-5.16,6.33-10.57,12.54-15.39,19.14-2.02,2.76-3.89,5.67-5.29,8.8-.88,1.96-2.2,4.55-1.76,6.75,.78,3.88,2.71,7.73,4.2,11.37,1.49,3.65,2.47,6.79,6.5,8.35s8.22,1.6,12.33,1.81c3.4,.18,6.8,.3,10.2,.4,10.22,.33,20.44,.51,30.67,.68,13.99,.22,27.98,.38,41.97,.51,16.66,.15,33.33,.26,50,.33,18.25,.09,36.49,.14,54.74,.16,18.74,.03,37.47,.02,56.21,0,18.05-.03,36.1-.09,54.16-.18,16.45-.08,32.89-.19,49.34-.35,13.66-.13,27.32-.29,40.98-.52,9.78-.17,19.57-.35,29.35-.69,3.09-.11,6.17-.23,9.26-.41,5.24-.31,11.99-.42,15.71-4.56,2.06-2.28,2.99-6.27,4.1-9.06,.81-2.03,1.61-4.06,2.31-6.13,.35-1.03,.96-2.33,.83-3.46-.08-.73-3-.14-2.9,.78,.13,1.21-.71,2.84-1.1,3.94-.75,2.1-1.57,4.18-2.4,6.25-1.47,3.66-2.43,8.15-6.53,9.58-3.42,1.2-7.37,1.21-10.99,1.4-7.87,.39-15.76,.57-23.64,.74-12.05,.26-24.09,.43-36.14,.58-15.08,.18-30.15,.31-45.23,.41-17.14,.12-34.27,.2-51.41,.25-18.17,.06-36.35,.08-54.52,.08-18.28,0-36.55-.02-54.83-.08-17.19-.05-34.37-.13-51.56-.24-15.16-.1-30.32-.23-45.48-.41-12.12-.14-24.23-.31-36.35-.57-8-.17-16-.34-24-.73-2.98-.14-6.01-.26-8.96-.76-2.9-.49-6.39-1.45-7.85-4.28-.62-1.19-1.04-2.54-1.54-3.78-1.56-3.81-3.31-7.65-4.39-11.63-.58-2.13,.45-4.28,1.27-6.25,1.48-3.54,3.59-6.77,5.88-9.84,4.81-6.46,10.11-12.59,15.2-18.84,10.52-12.91,21.03-25.82,31.55-38.74,5.19-6.37,10.36-12.76,15.57-19.11,4.76-5.79,9.65-12.13,16.06-16.2,7.9-5.02,18.12-3.63,27.13-3.6,14.89,.05,29.78,.07,44.67,.09,19.67,.02,39.34,.03,59.01,.04,20.75,0,41.51,0,62.26-.01,17.84-.01,35.68-.03,53.53-.06,6.68-.01,13.37-.03,20.05-.05,8.34-.03,17.85-1.27,25.56,2.25,6.75,3.08,11.82,9.07,16.52,14.62,5.28,6.24,10.38,12.66,15.54,19,10.52,12.91,21.03,25.82,31.55,38.74,5.04,6.19,10.11,12.35,15.11,18.56,4.5,5.6,8.84,11.52,10.48,18.65,.18,.79,3.09,.07,2.9-.78Z"></path></g><path class="cls-1" d="M23.8,445.27c58.78-.29,117.57-.58,176.35-.86,58.59-.28,117.19-.51,175.78-.07,33.05,.25,66.1,.7,99.14,1.48,1.09,.03,3.08-1.58,1.13-1.63-58.88-1.38-117.77-1.75-176.66-1.72-58.55,.03-117.1,.4-175.65,.69-32.98,.16-65.97,.32-98.95,.48-1.08,0-3.08,1.64-1.13,1.63h0Z"></path><path class="cls-1" d="M116.1,330.55c35.3-.29,70.6-.58,105.89-.86,35.18-.28,70.37-.51,105.55-.07,19.85,.25,39.7,.71,59.53,1.48,.62,.02,1.62-.19,1.9-.84s-.23-1.02-.84-1.04c-35.34-1.38-70.71-1.75-106.08-1.72-35.16,.03-70.32,.4-105.47,.69-19.81,.16-39.61,.32-59.42,.48-.63,0-1.61,.18-1.9,.84-.26,.59,.23,1.04,.84,1.04h0Z"></path><path class="cls-1" d="M312.06,420.56c-4.34-6.6-9.39-12.74-15.11-18.19-2.66-2.53-5.36-4.56-9.03-5.28-1.75-.34-3.55-.47-5.32-.51-5.64-.11-11.29-.07-16.94-.08-8.91-.01-17.83-.02-26.74,0-6.51,0-13.02,0-19.53,.06-3.54,.03-7.24,.17-10.48,1.71-3.29,1.56-5.92,4.41-8.42,6.98-2.75,2.83-5.34,5.82-7.74,8.94-1.23,1.6-2.42,3.24-3.56,4.9-.99,1.45-2.09,2.9-2.62,4.6-1.06,3.41,1.56,5.39,4.67,5.67,3.06,.28,6.25,.07,9.33,.07,8.85,.01,17.69,.02,26.54,.02,10.81,0,21.61,0,32.42,0,9.98,0,19.95,0,29.93-.01,3.81,0,7.62,0,11.43-.01,1.45,0,2.9,0,4.34,0,2.07,0,4.25,.08,6.13-.93,3.34-1.79,2.4-5.3,.71-7.94-.69-1.08-3.46,.01-2.66,1.27s2.1,3.39,.91,4.75c-.75,.86-2.31,.75-3.34,.76-1.25,0-2.49,0-3.74,0-3.36,0-6.72,.01-10.08,.01-9.19,0-18.37,.01-27.56,.02-10.41,0-20.82,0-31.23,0-9.12,0-18.25,0-27.37-.02-3.35,0-6.7,0-10.05-.01-1.24,0-2.48,.01-3.72,0s-2.74-.07-3.53-1.09c-1.12-1.46,.01-3.42,.84-4.73,4.04-6.36,9.01-12.24,14.4-17.48,1.28-1.25,2.59-2.5,4.1-3.47,1.61-1.03,3.43-1.48,5.32-1.68,1.19-.13,2.4-.21,3.6-.22,5.42-.08,10.84-.06,16.26-.07,8.5-.01,17-.02,25.49,0,6.6,0,13.2,0,19.81,.05,.44,0,.88,0,1.32,.01,.17,0,.34,0,.51,0,.25,0,.48,0,.15,0,1.52,.03,3.04,.13,4.54,.36,3.83,.59,6.52,2.92,9.19,5.55,2.71,2.65,5.26,5.46,7.66,8.4,2.32,2.84,4.48,5.8,6.49,8.87,.71,1.07,3.47-.02,2.66-1.27Z"></path><g><g><path class="cls-1" d="M106.89,344.47c6.02-.1,12.05-.2,18.07-.31,.62-.01,1.57-.2,1.91-.79s-.28-.84-.78-.83c-6.02,.1-12.05,.2-18.07,.31-.62,.01-1.57,.2-1.91,.79s.28,.84,.78,.83h0Z"></path><path class="cls-1" d="M136.69,344.73c5.56-.41,11.14-.52,16.71-.25,.67,.03,1.58-.2,1.89-.87,.28-.62-.25-1.14-.87-1.17-5.82-.28-11.65-.19-17.46,.24-.61,.05-1.52,.44-1.6,1.14s.78,.94,1.33,.9h0Z"></path><path class="cls-1" d="M162.84,343.87c3.08,1.1,6.47,.85,9.68,.75,3.63-.11,7.26-.3,10.89-.57,.51-.04,1.57-.38,1.64-1,.08-.66-.83-.68-1.26-.64-3.25,.24-6.51,.42-9.77,.52-2.85,.09-6.15,.5-8.89-.48-.66-.24-1.46-.12-2.05,.26-.33,.22-.93,.91-.25,1.16h0Z"></path><path class="cls-1" d="M194.14,344.51c6.27-.12,12.55-.24,18.82-.36,.62-.01,1.57-.19,1.91-.79s-.28-.87-.79-.86c-6.27,.12-12.55,.24-18.82,.36-.62,.01-1.57,.19-1.91,.79s.28,.87,.79,.86h0Z"></path><path class="cls-1" d="M222.6,344.13c5.95,.07,11.91,.13,17.86,.2,.59,0,1.57-.22,1.92-.75s-.32-.68-.74-.69c-5.95-.07-11.91-.13-17.86-.2-.59,0-1.57,.22-1.92,.75s.32,.68,.74,.69h0Z"></path><path class="cls-1" d="M250.53,344.29c5.93-.1,11.86-.2,17.8-.31,.55,0,1.6-.22,1.93-.71,.35-.52-.31-.55-.7-.54-5.93,.1-11.86,.2-17.8,.31-.55,0-1.6,.22-1.93,.71-.35,.52,.31,.55,.7,.54h0Z"></path><path class="cls-1" d="M279.92,344.24c5.51-.43,11.04-.48,16.56-.23,.66,.03,1.5-.2,2.05-.55,.45-.29,.42-.51-.14-.54-5.73-.27-11.46-.19-17.18,.26-.54,.04-1.59,.21-1.95,.67s.32,.41,.66,.38h0Z"></path><path class="cls-1" d="M306.04,343.71c3.29,.89,6.71,.75,10.08,.64,3.39-.1,6.78-.29,10.16-.55,.55-.04,1.59-.21,1.94-.68s-.32-.47-.68-.44c-3.17,.25-6.35,.43-9.53,.53s-6.45,.26-9.58-.59c-.62-.17-1.47,.11-2.02,.38-.26,.13-.99,.55-.36,.72h0Z"></path><path class="cls-1" d="M337.83,344.43c6.17-.12,12.33-.24,18.5-.36,.6-.01,1.57-.21,1.92-.76s-.3-.73-.75-.72c-6.17,.12-12.33,.24-18.5,.36-.6,.01-1.57,.21-1.92,.76s.3,.73,.75,.72h0Z"></path><path class="cls-1" d="M366.13,344.37c6.01,.07,12.02,.13,18.04,.2,.66,0,1.57-.19,1.9-.85,.29-.6-.26-1.06-.84-1.07-6.01-.07-12.02-.13-18.04-.2-.66,0-1.57,.19-1.9,.85-.29,.6,.26,1.06,.84,1.07h0Z"></path></g><g><path class="cls-1" d="M395.26,353.09c-6.44-.12-12.88-.23-19.32-.35-.65-.01-1.58,.19-1.9,.84-.3,.6,.26,1.03,.84,1.04,6.44,.12,12.88,.23,19.32,.35,.65,.01,1.58-.19,1.9-.84,.3-.6-.26-1.03-.84-1.04h0Z"></path><path class="cls-1" d="M364.02,353.15c-6.19-.48-12.41-.6-18.62-.27-.57,.03-1.53,.42-1.62,1.07-.1,.7,.81,.8,1.29,.78,5.96-.31,11.93-.17,17.88,.28,.64,.05,1.59-.22,1.9-.84s-.27-.99-.83-1.03h0Z"></path><path class="cls-1" d="M333.89,352.99c-1.3,.54-2.77,.54-4.15,.55-1.65,0-3.31-.05-4.96-.1-3.43-.12-6.86-.32-10.28-.58-.68-.05-1.52,.1-2.05,.55-.41,.34-.4,.79,.23,.84,3.9,.3,7.81,.52,11.73,.64,3.48,.11,7.28,.43,10.57-.95,.33-.14,1.19-.54,.82-1-.34-.43-1.52-.1-1.89,.06h0Z"></path><path class="cls-1" d="M302.45,353.25c-6.71-.14-13.41-.27-20.12-.41-.61-.01-1.58,.21-1.91,.79s.29,.82,.78,.83c6.71,.14,13.41,.27,20.12,.41,.61,.01,1.58-.21,1.91-.79s-.29-.82-.78-.83h0Z"></path><path class="cls-1" d="M272.43,353.14c-6.32,.07-12.64,.15-18.96,.22-.68,0-1.48,.14-2.05,.55-.4,.29-.44,.67,.18,.66,6.32-.07,12.64-.15,18.96-.22,.68,0,1.48-.14,2.05-.55,.4-.29,.44-.67-.18-.66h0Z"></path><path class="cls-1" d="M241.92,352.93c-6.34-.12-12.67-.23-19.01-.35-.64-.01-1.52,.51-1.59,1.2-.07,.77,.76,.99,1.35,1,6.34,.12,12.67,.23,19.01,.35,.64,.01,1.52-.51,1.59-1.2,.07-.77-.76-.99-1.35-1h0Z"></path><path class="cls-1" d="M211.43,353.42c-6.09-.5-12.21-.59-18.32-.29-.59,.03-1.56,.21-1.93,.73s.32,.64,.72,.62c5.9-.3,11.8-.22,17.68,.27,.67,.06,1.52-.12,2.05-.55,.42-.34,.4-.74-.21-.79h0Z"></path><path class="cls-1" d="M181.77,352.54c-3.22,.98-6.66,.73-9.98,.62s-6.79-.32-10.18-.6c-.66-.05-1.59,.21-1.89,.86s.26,1.07,.86,1.12c3.66,.3,7.32,.51,10.99,.63,3.58,.11,7.23,.28,10.7-.78,.53-.16,1.39-.62,1.2-1.31s-1.18-.69-1.7-.53h0Z"></path><path class="cls-1" d="M149.06,352.98c-6.59-.14-13.17-.27-19.76-.41-.63-.01-1.53,.5-1.59,1.18-.08,.77,.77,.96,1.34,.97,6.59,.14,13.17,.27,19.76,.41,.63,.01,1.53-.5,1.59-1.18,.08-.77-.77-.96-1.34-.97h0Z"></path><path class="cls-1" d="M119.43,353.05c-6.39,.07-12.77,.15-19.16,.22-.57,0-1.59,.21-1.93,.74s.3,.65,.73,.65c6.39-.07,12.77-.15,19.16-.22,.57,0,1.59-.21,1.93-.74s-.3-.65-.73-.65h0Z"></path></g><path class="cls-1" d="M421.34,380.32c-7.47-.15-14.94-.31-22.41-.46-.55-.01-1.64,.21-1.92,.76-.3,.57,.26,.71,.75,.72,7.47,.15,14.94,.31,22.41,.46,.55,.01,1.64-.21,1.92-.76,.3-.57-.26-.71-.75-.72h0Z"></path><path class="cls-1" d="M385.16,380.31c-7.16-.63-14.35-.79-21.52-.35-.5,.03-1.57,.38-1.65,.99-.09,.66,.83,.66,1.25,.63,6.93-.42,13.88-.22,20.79,.39,.6,.05,1.59-.23,1.91-.79,.35-.6-.3-.82-.79-.86h0Z"></path><path class="cls-1" d="M350.27,379.48c-1.45,.74-3.12,.81-4.72,.84-1.97,.04-3.95-.05-5.92-.13-4.12-.16-8.22-.43-12.33-.8-.66-.06-1.61,.21-1.89,.88s.25,1.12,.87,1.17c4.57,.41,9.15,.7,13.73,.85,3.75,.12,8.05,.59,11.52-1.17,1.77-.89,.18-2.38-1.27-1.64h0Z"></path><path class="cls-1" d="M174.04,379.85c-3.55,1.24-7.57,.83-11.26,.68s-7.68-.42-11.51-.79c-.65-.06-1.54,.1-2.05,.55-.4,.35-.41,.76,.22,.82,4.4,.42,8.81,.71,13.23,.86,4.23,.15,8.39,.21,12.44-1.2,.38-.13,1.12-.5,.82-.98-.28-.45-1.57-.04-1.89,.07h0Z"></path><path class="cls-1" d="M136.78,380.12c-7.61-.18-15.22-.37-22.82-.55-.66-.02-1.58,.19-1.89,.86-.29,.61,.25,1.09,.85,1.11,7.61,.18,15.22,.37,22.82,.55,.66,.02,1.58-.19,1.89-.86,.29-.61-.25-1.09-.85-1.11h0Z"></path><path class="cls-1" d="M101.58,379.62c-7.4,.1-14.8,.2-22.2,.3-1.65,.02-2.23,2.15-.26,2.12,7.4-.1,14.8-.2,22.2-.3,1.65-.02,2.23-2.15,.26-2.12h0Z"></path><g><path class="cls-1" d="M89.89,366.75c6.87-.13,13.74-.27,20.61-.4,.56-.01,1.6-.22,1.93-.72s-.3-.6-.72-.59c-6.87,.13-13.74,.27-20.61,.4-.56,.01-1.6,.22-1.93,.72s.3,.6,.72,.59h0Z"></path><path class="cls-1" d="M123.82,367.21c6.36-.53,12.74-.68,19.11-.33,.68,.04,1.58-.2,1.89-.88,.28-.63-.25-1.17-.88-1.21-6.62-.37-13.25-.24-19.85,.31-.63,.05-1.52,.45-1.6,1.17s.77,.99,1.34,.94h0Z"></path><path class="cls-1" d="M154.06,366.33c3.37,1.41,7.37,.98,10.94,.86,4.04-.13,8.07-.38,12.09-.71,.56-.05,1.55-.41,1.62-1.08s-.79-.84-1.3-.8c-3.74,.31-7.48,.55-11.23,.68-3.37,.12-7.21,.6-10.4-.73-1.07-.45-3.37,1.09-1.72,1.78h0Z"></path><path class="cls-1" d="M189.73,367.12c7.15-.16,14.3-.31,21.45-.47,.58-.01,1.55-.45,1.61-1.12,.07-.73-.77-.87-1.31-.86-7.15,.16-14.3,.31-21.45,.47-.58,.01-1.55,.45-1.61,1.12-.07,.73,.77,.87,1.31,.86h0Z"></path><path class="cls-1" d="M221.74,366.5c6.78,.09,13.56,.17,20.34,.26,.58,0,1.6-.22,1.92-.75s-.29-.7-.75-.71c-6.78-.09-13.56-.17-20.34-.26-.58,0-1.6,.22-1.92,.75s.29,.7,.75,.71h0Z"></path><path class="cls-1" d="M254.04,367.15c6.75-.13,13.51-.27,20.26-.4,.63-.01,1.52-.48,1.6-1.17,.08-.75-.77-.96-1.34-.95-6.75,.13-13.51,.27-20.26,.4-.63,.01-1.52,.48-1.6,1.17-.08,.75,.77,.96,1.34,.95h0Z"></path><path class="cls-1" d="M287.47,366.95c6.26-.56,12.55-.63,18.83-.3,.61,.03,1.58-.22,1.91-.79s-.3-.81-.78-.83c-6.52-.35-13.06-.25-19.56,.34-.49,.04-1.57,.37-1.65,.97-.09,.65,.84,.64,1.25,.6h0Z"></path><path class="cls-1" d="M317.15,366.32c3.68,1.12,7.5,.99,11.3,.87,3.94-.13,7.88-.37,11.81-.72,.55-.05,1.55-.4,1.62-1.07s-.79-.81-1.29-.77c-3.64,.33-7.29,.56-10.95,.7s-7.27,.32-10.77-.75c-.65-.2-1.58,.05-2.05,.55-.44,.48-.3,1.01,.32,1.2h0Z"></path><path class="cls-1" d="M352.99,366.85c7.01-.16,14.02-.31,21.03-.47,.58-.01,1.59-.21,1.92-.75s-.29-.7-.74-.69c-7.01,.16-14.02,.31-21.03,.47-.58,.01-1.59,.21-1.92,.75s.29,.7,.74,.69h0Z"></path><path class="cls-1" d="M385.59,366.87c6.86,.09,13.71,.17,20.57,.26,.64,0,1.52-.51,1.59-1.2,.07-.77-.76-.99-1.35-1-6.86-.09-13.71-.17-20.57-.26-.64,0-1.52,.51-1.59,1.2-.07,.77,.76,.99,1.35,1h0Z"></path></g><path class="cls-1" d="M189.58,376.95c-1.15,2.72-1.82,5.57-1.96,8.52-.02,.47,.48,.54,.86,.54,32.77,.05,65.54,.1,98.31,.14,9.32,.01,18.64,.03,27.96,.04,.38,0,2.34-.39,2.03-1.14-1.02-2.42-2.04-4.84-3.05-7.26-.14-.33-.56-.36-.87-.36-31.12-.08-62.25-.16-93.37-.24-8.81-.02-17.62-.05-26.44-.07-.56,0-1.63,.21-1.92,.76s.25,.73,.75,.74c31.11,.08,62.22,.16,93.33,.24,8.83,.02,17.65,.05,26.48,.07l-.87-.36c1.02,2.42,2.04,4.84,3.05,7.26,.68-.38,1.35-.76,2.03-1.14-32.78-.05-65.56-.1-98.34-.14-9.31-.01-18.63-.03-27.94-.04l.86,.54c.14-2.95,.81-5.8,1.96-8.52,.33-.78-2.51-.47-2.89,.41h0Z"></path></g></g><g id="account"><g class="cls-4"><rect class="cls-5" x="132.75" y="131.42" width="246.5" height="157.3" rx="13.58" ry="13.58"></rect><path class="cls-5" d="M365.67,289.22H146.33c-7.76,0-14.08-6.32-14.08-14.08V145c0-7.76,6.32-14.08,14.08-14.08h219.34c7.76,0,14.08,6.32,14.08,14.08v130.14c0,7.76-6.32,14.08-14.08,14.08ZM146.33,131.92c-7.21,0-13.08,5.87-13.08,13.08v130.14c0,7.21,5.87,13.08,13.08,13.08h219.34c7.21,0,13.08-5.87,13.08-13.08V145c0-7.21-5.87-13.08-13.08-13.08H146.33Z"></path></g><g><rect class="cls-2" x="202.15" y="243.95" width="107.69" height="27.99" rx="6.94" ry="6.94"></rect><path class="cls-2" d="M303.46,271.1c-4.65,0-9.31,0-13.96,0-10.36,0-20.71,0-31.07,0-10.65,0-21.3,0-31.96,0-5.55,0-11.09,.04-16.64,0-2.34-.02-4.45-1.31-5.52-3.42-.94-1.86-.72-4-.72-6.01,0-2.67,0-5.34,0-8.01,0-2.02-.24-4.25,.77-6.09,.94-1.7,2.5-2.76,4.44-2.78,.66,0,1.31,0,1.97,0h8.8c9.96,0,19.91,0,29.87,0h32.71c6.44,0,12.89,0,19.33,0,.63,0,1.26-.02,1.88,.09,3.16,.59,5,3.58,5.02,6.62,.03,4.45,.03,8.91,0,13.36-.02,2.89-1.67,6.15-4.93,6.23-.59,.01-1.62,.18-1.91,.8-.27,.57,.23,.9,.79,.88,3.94-.1,7.87-2.39,8.78-6.44,.41-1.83,.17-3.93,.17-5.78,0-2.71,0-5.42,0-8.13,0-2.43-.11-4.71-1.81-6.67-2.16-2.49-5.12-2.66-8.11-2.66h-9.05c-10.34,0-20.68,0-31.03,0-11.14,0-22.28,0-33.43,0-5.99,0-11.98-.04-17.97,0-2.17,.01-4.27,.57-6.02,1.89-2.35,1.77-3.18,4.27-3.18,7.09,0,4.36-.04,8.72,0,13.09,.03,3.92,2.94,7.06,6.82,7.54,.64,.08,1.27,.07,1.91,.07,2.46,0,4.91,0,7.37,0,9.85,0,19.71,0,29.56,0,11.4,0,22.8,0,34.2,0,6.92,0,13.84,0,20.76,0,.34,0,.68,0,1.01,0,.59,0,1.62-.19,1.91-.8s-.24-.88-.79-.88Z"></path></g><g><rect class="cls-1" x="165.17" y="190.2" width="181.65" height="41.25" rx="9.07" ry="9.07"></rect><path class="cls-1" d="M338.04,231.1c-2.12,0-4.25,0-6.37,0-5.64,0-11.28,0-16.92,0-8.1,0-16.2,0-24.3,0-9.39,0-18.78,0-28.17,0-9.62,0-19.23,0-28.85,0-8.75,0-17.49,0-26.24,0h-20.34c-3.72,0-7.44,0-11.16,0-1.66,0-3.23-.1-4.78-.85-3.1-1.49-4.98-4.67-5.03-8.07-.01-.87,0-1.73,0-2.6,0-4.45,0-8.9,0-13.34,0-1.85,0-3.7,0-5.54,0-1.43-.03-2.83,.4-4.22,1.12-3.66,4.34-5.93,8.1-5.94,1.1,0,2.2,0,3.3,0,4.89,0,9.79,0,14.68,0,7.58,0,15.16,0,22.74,0,9.17,0,18.34,0,27.5,0,9.66,0,19.32,0,28.98,0,9.06,0,18.12,0,27.18,0,7.39,0,14.78,0,22.17,0,4.56,0,9.11,0,13.67,0,.88,0,1.77-.01,2.66,0,4.92,.06,8.74,4.05,8.82,8.93,.11,7.2,0,14.41,0,21.62,0,1.33,.02,2.63-.35,3.92-1,3.48-4.04,6.03-7.7,6.1-.46,0-1.56,.71-.6,.69,5.54-.1,10.07-4.23,10.1-9.86,.02-3.64,0-7.29,0-10.93,0-3.83,0-7.65,0-11.48-.01-5.4-4.05-9.61-9.5-9.67-2.25-.03-4.49,0-6.74,0-5.88,0-11.76,0-17.64,0-8.31,0-16.62,0-24.93,0h-28.94c-9.78,0-19.57,0-29.35,0-8.75,0-17.51,0-26.26,0-6.56,0-13.11,0-19.67,0-3.19,0-6.37,0-9.56,0-3.28,0-6.49,1.23-8.55,3.88-2.34,3-1.97,6.62-1.97,10.17,0,4.64,0,9.29,0,13.93,0,3.61-.42,7.33,1.95,10.38,1.97,2.53,4.92,3.58,8.04,3.59,1.15,0,2.31,0,3.46,0,5.1,0,10.21,0,15.31,0,7.85,0,15.71,0,23.56,0,9.44,0,18.88,0,28.32,0,9.82,0,19.63,0,29.45,0,9.11,0,18.22,0,27.33,0,7.2,0,14.4,0,21.59,0,4.12,0,8.24,0,12.35,0,.54,0,1.08,0,1.62,0,.46,0,1.56-.69,.6-.69Z"></path></g><g><path class="cls-1" d="M218.52,258.28c.47,2.67,2.6,4.65,5.13,5.47,2.76,.89,5.76,.28,8.22-1.17,4.48-2.63,8.96-9.85,4.96-14.64-.44-.53-1.94,.16-2.19,.65-1.74,3.39-2.61,7.15-2.37,10.97,.19,3.02,1.42,6.31,5.09,5.26,3.11-.89,5.56-4.1,7.17-6.74,1.84-3.01,2.93-6.43,3.21-9.94,.06-.78-1.38-.31-1.69-.15-3.1,1.56-3.77,4.96-3.96,8.14-.16,2.69,.03,6.49,3,7.63,3.52,1.35,6.98-1.75,8.89-4.35,2.45-3.33,3.87-7.34,4.17-11.46,.05-.77-1.38-.32-1.69-.15-2.4,1.29-3.43,3.59-3.72,6.22-.27,2.44-.37,5.55,.74,7.81,1.27,2.59,4.14,2.96,6.62,1.91,3.12-1.31,4.36-4.28,5.36-7.3-.79,.23-1.57,.46-2.36,.69,1.06,3.07,3.48,5.4,6.55,6.4,.7,.23,2.81-.97,1.83-1.29-2.87-.93-5.05-3.12-6.03-5.97-.3-.86-2.18,.14-2.36,.69-.67,2.02-1.57,5.21-3.92,5.86s-3.56-1.87-3.92-3.71c-.35-1.82-.34-3.81-.13-5.64,.19-1.75,.67-3.95,2.36-4.86-.56-.05-1.13-.1-1.69-.15-.23,3.16-1.1,6.23-2.66,9-1.15,2.03-3.98,6.68-6.81,4.65-1.93-1.38-1.96-4.41-1.84-6.53,.13-2.19,.35-5.64,2.6-6.77l-1.69-.15c-.41,5.26-2.84,11.28-7.25,14.48-3.13,2.27-3.54-4.25-3.51-5.82,.06-3.11,.84-6.15,2.26-8.92l-2.19,.65c3.2,3.83,.05,9.98-3.44,12.44-3.8,2.67-9.53,.66-10.36-4.07-.13-.72-2.5-.01-2.35,.85h0Z"></path><path class="cls-1" d="M270.42,250.21c1.17,4.14,2.19,9.05,6.93,10.37,1.74,.49,3.69,.34,5.09-.9,1.31-1.16,1.95-2.99,2.08-4.69,.14-1.86-.4-3.47-2.51-3.67-2.26-.22-2.52,2.3-2.71,4-.24,2.11,.04,4.32,1.58,5.9,1.29,1.32,3.31,1.97,5.13,1.62,2.15-.41,3.68-2.23,4.69-4.05,1.31-2.37,2.11-5.03,1.98-7.75-.04-.77-2.37-1.32-2.42-.62-.33,4.29-.05,8.6,.84,12.81,.15,.72,2.57,1.11,2.41,.32-.86-4.13-1.14-8.32-.82-12.52-.81-.21-1.61-.41-2.42-.62,.15,3.1-.88,6.47-2.76,8.96-.75,1-1.96,2.31-3.31,2.35-1.24,.04-2.04-1.65-2.32-2.67-.45-1.64-.21-3.55,.21-5.19,.08-.32,.35-.7,.4-1.01,.05-.33,.54-.03-.21-.33-.69-.28-.29-.15-.28,.11,.02,.69,.17,1.31,.09,2.02-.22,1.98-1.67,5.6-4.31,4.95-1.68-.42-2.76-2.38-3.35-3.84-.68-1.68-1.1-3.48-1.59-5.22-.2-.72-2.61-1.06-2.41-.32h0Z"></path></g><g><g><path class="cls-5" d="M185.35,202.2c-.08,6.54-.17,15.25-.25,21.79,3.07,.09,6.13,.18,9.2,.27,.17-1.4-.13-2.83,.04-4.23,.17-1.4,1.02-2.9,2.42-3.1,1.49-.21,2.77,1.2,3.16,2.65,.39,1.45,.19,3,.37,4.49,2.81-.17,5.64-.13,8.45,.12,.33-2.37,.48-4.77,.45-7.16,2.57,.18,5.15,.22,7.72,.14,.3-4.77,.5-9.54,.6-14.31l-1.23-.4c-10.08,.24-20.37-.83-30.94-.26Z"></path><path class="cls-5" d="M184.99,202.3c-.09,7.26-.16,14.53-.25,21.79,0,.05,.11,.06,.13,.06l9.2,.27c.16,0,.58-.04,.59-.26,.12-1.38-.12-2.76,.04-4.14,.06-.52,.18-1.01,.41-1.48,.13-.26,.29-.59,.51-.78,.55-.47,1.76-.72,2.39-.31,2.23,1.43,1.71,4.48,1.92,6.72,0,.07,.17,.07,.21,.07,2.79-.16,5.58-.12,8.37,.12,.12,.01,.57-.04,.59-.22,.32-2.39,.47-4.79,.45-7.2l-.59,.26c2.6,.17,5.2,.22,7.8,.14,.14,0,.5-.07,.51-.26,.3-4.77,.5-9.54,.6-14.31-.01-.03-.04-.05-.07-.05-1.78-.58-3.53-.37-5.4-.38-3.08-.02-6.17-.12-9.25-.22-5.89-.2-11.77-.37-17.66-.07-.21,.01-.78,.35-.3,.33,8.15-.42,16.3,.11,24.45,.26,1.85,.03,3.69,.04,5.54,.02,.52,0,1.17-.05,1.65,.24,.41,.26,.23-.17,.31,.57,.05,.46-.02,1.02-.04,1.48-.11,4.11-.3,8.23-.55,12.34l.51-.26c-2.55,.07-5.1,.02-7.64-.14-.15,0-.59,.05-.59,.26,.01,2.39-.13,4.76-.45,7.12l.59-.22c-1.42-.12-2.84-.2-4.26-.21-.64,0-1.28,0-1.92,0-.53,0-1.66,.27-2.03-.11s-.2-1.69-.22-2.22c-.03-.67-.07-1.36-.26-2-.27-.95-.87-1.88-1.74-2.38-1.14-.65-2.58-.35-3.48,.57-1.73,1.77-.95,4.5-1.13,6.68l.59-.26c-1.45-.04-2.91-.08-4.36-.13-.65-.02-1.29-.04-1.94-.06s-1.55,.11-2.18-.06c-.78-.21-.58-.78-.58-1.47,0-.59,.01-1.19,.02-1.78,.01-1.25,.03-2.49,.04-3.74,.05-4.92,.1-9.84,.17-14.76,0-.14-.72-.04-.72,.19Z"></path></g><g><path class="cls-5" d="M233.5,202.12c.07,5.23-.08,10.47-.45,15.7,1.81-.45,3.69-.4,5.55-.36,4.26,.11,8.51,.21,12.77,.32,.27-5.24,.75-10.48,1.43-15.68-6.29,0-12.57-.07-18.86-.23l-.45,.26Z"></path><path class="cls-5" d="M233.14,202.22c.06,5.24-.09,10.47-.45,15.7,0,.07,.27,.02,.29,.02,2.99-.69,6.21-.32,9.25-.24s5.93,.15,8.9,.22c.12,0,.59-.06,.6-.23,.28-5.24,.75-10.47,1.43-15.68,0-.04-.12-.04-.12-.04-3.8,0-7.6-.03-11.39-.08-1.83-.03-3.67-.06-5.5-.1-1.11-.03-1.97-.2-2.92,.35-.29,.17,.42,.07,.55,0,.44-.25,.47-.11,1.11-.09,.72,.02,1.44,.03,2.16,.05,1.51,.03,3.01,.06,4.52,.08,2.95,.04,5.89,.07,8.84,.07,.5,0,1.82-.26,1.99,.34,.14,.53-.2,1.55-.26,2.1-.17,1.46-.33,2.93-.47,4.39-.28,2.93-.5,5.87-.65,8.81l.6-.23c-3.22-.08-6.45-.16-9.67-.24-2.92-.07-5.94-.36-8.81,.3l.29,.02c.36-5.22,.51-10.46,.45-15.7,0-.09-.73,0-.72,.19Z"></path></g><g><path class="cls-5" d="M266.85,202.12c.07,5.23-.08,10.47-.45,15.7,1.81-.45,3.69-.4,5.55-.36,4.26,.11,8.51,.21,12.77,.32,.27-5.24,.75-10.48,1.43-15.68-6.29,0-12.57-.07-18.86-.23l-.45,.26Z"></path><path class="cls-5" d="M266.48,202.22c.06,5.24-.09,10.47-.45,15.7,0,.13,.37,.05,.4,.04,2.98-.68,6.2-.31,9.23-.23,2.97,.07,5.93,.15,8.9,.22,.15,0,.5-.08,.51-.27,.28-5.23,.75-10.45,1.43-15.64,.01-.11-.13-.11-.21-.11-3.67,0-7.33-.02-11-.08-1.83-.03-3.67-.06-5.5-.1-1.11-.02-2.19-.27-3.17,.3-.42,.24,.23,.26,.43,.14,.48-.27,.87-.14,1.46-.12,.85,.02,1.7,.04,2.55,.06,1.64,.03,3.27,.06,4.91,.08,3.34,.04,6.68,.06,10.02,.06l-.21-.11c-.68,5.22-1.16,10.47-1.44,15.72l.51-.27c-3.22-.08-6.45-.16-9.67-.24-2.94-.07-5.95-.35-8.84,.31l.4,.04c.36-5.22,.51-10.46,.45-15.7,0-.16-.73-.04-.72,.19Z"></path></g><g><path class="cls-5" d="M326.65,206.37c-.29-1.74-.8-3.52-2.02-4.79-1.21-1.27-3.29-1.87-4.79-.94,.7-1.29,.03-2.99-1.15-3.86-1.18-.87-2.71-1.09-4.17-1.14-1.79-.07-3.69,.1-5.13,1.15-1.45,1.05-2.19,3.23-1.17,4.69-2.4-.55-4.92-.54-7.32,.02l-.85,.48c-.22,5.08-.27,10.17-.14,15.26,2.42-.46,4.9-.57,7.36-.34,.18,.02,.37,.04,.5,.16,.24,.23,.13,.63,.04,.95-.36,1.34,.16,2.81,1.14,3.79,.98,.98,2.34,1.5,3.71,1.67,1.91,.23,3.95-.22,5.44-1.45,1.49-1.23,2.32-3.29,1.88-5.16,2.4,.49,4.86-1.14,5.96-3.32,1.11-2.18,1.1-4.76,.7-7.17Zm-14.11-5.57c.1-.8,.92-1.36,1.72-1.44l-.42,.13c.41-.22,.94,.12,1.06,.57,.12,.45-.05,.92-.27,1.32-.14,.25-.3,.49-.55,.64-.7,.4-1.64-.41-1.54-1.21Zm3.08,17.19c-.3,.42-.82,.64-1.33,.66-.11,0-.22,0-.3-.07-.1-.08-.13-.23-.14-.36-.09-.82-.06-1.87,.71-2.18l-.3,.47c.33-.39,1.02-.34,1.35,.05,.33,.39,.31,1.01,.01,1.43Zm6.09-8.62c-.26,.33-.64,.61-1.06,.62-.39,0-.75-.23-1.02-.52-.54-.59-.73-1.47-.5-2.24,.23-.76,.89-1.38,1.66-1.58l.17,.11c1.21,.68,1.58,2.5,.73,3.6Z"></path><g><path class="cls-5" d="M327.01,206.27c-.39-2.21-1.15-4.68-3.32-5.75-1.35-.66-2.81-.59-4.12,.11l.63-.06c.74-1.63-.17-3.4-1.66-4.23-1.63-.91-3.77-.97-5.59-.81-1.45,.12-3.02,.52-4.14,1.5-1.29,1.13-1.86,3.03-.94,4.55l.66-.23c-2.04-.44-4.12-.54-6.19-.23-.55,.08-2.29,.27-2.64,.94-.16,.3-.05,1.14-.06,1.49-.02,.66-.05,1.31-.06,1.97-.04,1.31-.06,2.63-.08,3.94-.03,2.63,0,5.25,.06,7.88,0,.08,.27,.03,.29,.03,1.77-.32,3.55-.48,5.35-.43,.4,0,1-.03,1.38,.07l.97,.44-.09,.65c-.08,.52-.16,.99-.07,1.51,.41,2.49,2.87,3.81,5.17,4.04,3.98,.4,8.66-2.32,7.79-6.86l-.66,.23c2.11,.34,4.23-.53,5.65-2.12,2.09-2.34,2.13-5.68,1.67-8.61-.02-.13-.75,.02-.72,.19,.32,2.04,.41,4.17-.28,6.16-.83,2.38-3,4.54-5.72,4.1-.1-.02-.7,.06-.66,.23,.49,2.53-.95,5.02-3.33,5.98-2.57,1.04-6.38,.34-7.75-2.3-.23-.45-.39-.93-.45-1.43-.06-.57,.15-1.07,.16-1.62,.02-.83-.51-.82-1.21-.88-2.37-.18-4.73-.02-7.06,.4l.29,.03c-.1-3.94-.1-7.88,.01-11.81,.03-.93-.08-2.04,.1-2.95,.09-.45-.04-.36,.36-.63,.17-.12,.34-.16,.53-.22,2.02-.66,4.61-.34,6.64,.09,.08,.02,.74-.1,.66-.23-.65-1.07-.58-2.33,.05-3.4,1.11-1.92,3.43-2.26,5.47-2.2,1.5,.04,3.19,.24,4.39,1.24,1.09,.91,1.6,2.37,1,3.7-.07,.16,.58-.04,.63-.06,1.86-1,3.94,.5,4.88,1.99,.73,1.15,1.05,2.51,1.28,3.84,.02,.13,.75-.03,.72-.19Z"></path><path class="cls-5" d="M312.9,200.7c.05-.35,.24-.66,.5-.88,.12-.1,.25-.19,.39-.25,.02,0,.03-.02,.05-.02-.02,.01-.02,0,.02,0,.02,0,.05-.02,.07-.02-.03,0-.03,.01,0,0,.02,0,.04,0,.06-.01-.04,0-.03,0,.01,0,.02,0,.05,0,.07-.01-.03,0-.02,0,.02,0l.13-.24-.42,.13,.23,.14s.07-.02-.01,0c-.03,0-.13,.05-.14,.03,0,0,.03,0,.05,0,.08,.02,.15,.05,.22,.09,.14,.09,.25,.2,.32,.35,.19,.38,.08,.83-.09,1.19-.08,.18-.18,.36-.3,.52-.05,.07-.11,.14-.18,.2-.03,.03-.07,.05-.1,.08-.03,.03-.02,0,0,0,.02,0,.05-.02,.07-.02,.01,0,.03,0,.04,0,0,0-.05,0-.02,0,.02,0-.05,0-.06,0-.07,0-.14-.03-.2-.06-.14-.06-.27-.15-.39-.26-.25-.25-.4-.6-.36-.96,0-.07-.7-.01-.72,.19-.04,.41,.16,.8,.46,1.06,.36,.31,.82,.35,1.27,.24,.27-.07,.53-.2,.73-.4,.18-.19,.32-.42,.43-.65,.21-.43,.37-1.01,.08-1.44-.35-.51-1-.52-1.51-.26-.05,.02-.2,.09-.14,.16s.3,0,.37-.02l.42-.13c.07-.02,.31-.07,.33-.17s-.15-.08-.2-.07c-.95,.1-2.1,.63-2.24,1.68-.01,.09,.35,.01,.39,0,.1-.03,.32-.08,.33-.2Z"></path><path class="cls-5" d="M315.26,218.05c-.11,.15-.25,.28-.41,.36-.14,.07-.17,.08-.32,.09-.19,.01-.27-.1-.3-.27s-.04-.34-.05-.52c-.01-.33,0-.67,.1-.99,.05-.15,.11-.29,.2-.42,.08-.11,.19-.19,.28-.23l-.56,.03-.3,.47c-.06,.1,.22,.07,.24,.06,.13-.02,.35-.06,.44-.16,.04-.04,.08-.08,.12-.11s.01,0-.02,0c-.02,0-.05,0-.07,.02,0,0,.05,0,.02,0,.05,0,.09,0,.14,.01,.21,.04,.4,.15,.53,.32,.29,.4,.24,.95-.03,1.34-.07,.1,.26,.06,.29,.06,.13-.02,.34-.07,.43-.19,.33-.49,.34-1.24-.17-1.62-.24-.17-.55-.22-.84-.2-.36,.03-.78,.16-1.03,.43l.68-.1c.1-.16,.2-.31,.3-.47,.05-.08-.14-.07-.16-.07-.14,0-.28,.05-.4,.1-.31,.13-.56,.35-.71,.65-.13,.28-.18,.61-.19,.92,0,.17,0,.34,.01,.5s.01,.35,.09,.5c.1,.19,.31,.21,.5,.21,.23,0,.47-.04,.69-.1,.47-.13,.93-.36,1.23-.76,.07-.1-.26-.06-.29-.06-.14,.03-.34,.07-.43,.19Z"></path><path class="cls-5" d="M321.35,209.43c-.12,.15-.34,.42-.54,.41-.26-.02-.5-.18-.69-.35-.4-.36-.64-.88-.7-1.41-.12-.94,.43-2.07,1.41-2.33l-.37,.02c.25,.16,.5,.31,.7,.53,.26,.28,.44,.63,.54,.99,.21,.73,.11,1.53-.35,2.14-.07,.1,.27,.06,.29,.06,.14-.03,.34-.07,.43-.19,.47-.62,.57-1.46,.36-2.2-.18-.64-.65-1.29-1.27-1.56-.19-.08-.47,.03-.65,.1-.23,.08-.46,.18-.66,.32-.38,.25-.71,.59-.92,1-.42,.82-.29,1.86,.31,2.57,.35,.42,.84,.66,1.39,.6s1.08-.36,1.44-.81c.08-.1-.27-.06-.29-.06-.14,.03-.33,.07-.43,.19Z"></path></g></g></g></g><g id="shield-break"><g><path class="cls-1" d="M243.87,60.72c2.62-1.48,20.47-3.91,23.38-3.18,4.98,1.24,8.7,5.08,10.72,9.38,1.79,3.8,2.45,7.96,2.97,12.11,6.24-1.46,12.49-2.92,18.73-4.37-.39-1.68-.84-3.35-1.37-5-2.95-9.24-8.4-18.06-16.96-23.66-6.98-4.56-16.23-6.65-24.68-4.95-2.31,.46-4.65,.78-6.99,.95-8.6,.62-16.96,5.1-22.46,11.36-6.76,7.68-9.65,17.64-10.02,27.33-.37,9.7,1.59,19.27,3.62,28.74l18.89-2.91c-1.01-6.61-2.02-13.23-3.03-19.84-.71-4.65-1.42-9.38-.62-14.06,.81-4.68,3.36-9.37,7.83-11.9Z"></path><path class="cls-5" d="M244.5,61.53c.6-.33,1.1-.42,2.03-.66,1.18-.29,2.38-.53,3.57-.74,2.98-.54,5.98-.95,8.99-1.27,2.28-.25,4.8-.59,6.98-.4,.15,.01,.3,.03,.45,.05,.24,.04-.52-.13,.08,.03,.19,.05,.37,.1,.55,.16,1.1,.34,2.14,.82,3.11,1.43,1.75,1.09,3.23,2.53,4.45,4.18,3.23,4.37,4.13,9.86,4.79,15.12,.09,.71,1.25,.66,1.7,.55,6.24-1.46,12.49-2.92,18.73-4.37,.56-.13,1.36-.66,1.2-1.33-2.24-9.44-6.51-18.58-13.74-25.23-7.33-6.75-17.31-10.34-27.28-9.48-2.68,.23-5.29,.9-7.96,1.21-2.53,.29-5.04,.44-7.53,1.03-4.71,1.12-9.21,3.26-13.1,6.13-7.98,5.89-12.89,14.9-14.82,24.52-2.5,12.46,.05,25.16,2.65,37.37,.11,.51,.87,.69,1.31,.62,6.3-.97,12.59-1.94,18.89-2.91,.69-.11,1.73-.52,1.59-1.4-1.28-8.36-2.88-16.74-3.76-25.16-.73-7.05,.38-15.51,7.12-19.45,1.7-.99,.15-2.43-1.26-1.61-6.96,4.07-9.39,11.7-8.95,19.4,.26,4.55,1.12,9.06,1.81,13.56,.71,4.68,1.43,9.35,2.14,14.03l1.59-1.4c-6.3,.97-12.59,1.94-18.89,2.91,.44,.21,.87,.42,1.31,.62-2.24-10.5-4.48-21.27-3.35-32.07,.96-9.21,4.42-18.36,11.13-24.94,3.27-3.21,7.28-5.74,11.59-7.31,4.66-1.7,9.54-1.67,14.37-2.56,9.54-1.77,19.18,.47,26.83,6.51,8.27,6.52,13.02,16.3,15.41,26.37l1.2-1.33c-6.24,1.46-12.49,2.92-18.73,4.37l1.7,.55c-.63-5.04-1.52-10.2-4.3-14.55-2.28-3.56-5.89-6.56-10.08-7.51-2.2-.5-4.7-.13-6.92,.08-3.33,.31-6.64,.75-9.94,1.31-2.54,.43-5.61,.7-7.92,1.95-1.74,.94-.17,2.38,1.26,1.61Z"></path></g><g class="cls-4"><path class="cls-5" d="M246.81,58.63c7.11-2.21,14.43-3.4,21.34-3.48,1.67-.02,3.35,.03,4.69,.53,1.86,.69,2.79,2.13,3.54,3.57,2.47,4.76,3.63,10.09,3.41,15.69-.03,.81-.08,1.66,.37,2.31s1.58,1.03,2.71,.63c1.42-.5,1.98-1.81,2.15-2.84,.64-3.8-.37-7.28-1.37-10.7-1.21-4.14-2.68-8.55-7.46-10.55-3.7-1.56-8.9-1.38-13.9-.28s-9.88,3.02-14.71,4.94"></path><g><path class="cls-5" d="M248.61,60.64c-.17,.03,.04,.39,.05,.47,.22-.19-.09-.57-.05-.47Z"></path><polygon class="cls-5" points="250.76 58.76 250.78 58.94 251 58.41 250.76 58.76"></polygon><path class="cls-5" d="M253.11,57.88c-.47-.59-.81,.43-1.31,.35l-.13-.13,.02,.61c.47-.28,1-.89,1.42-.83Z"></path><path class="cls-5" d="M254.88,58.87c-.17-.23,.19-.32-.32,.02,.04,.02,.05,.03,.08,.05,.05-.02,.12-.05,.24-.07Z"></path><path class="cls-5" d="M254.64,58.94c-.24,.11,.24,.16,0,0h0Z"></path><path class="cls-5" d="M255.71,58.38l-.24,.35c.12,.13,.42,.06,.35,.21,.28-.24,.16-.37-.11-.56Z"></path><path class="cls-5" d="M255.85,57.78l-.13,.16c.05,.05,.1,.06,.13-.16Z"></path><path class="cls-5" d="M255.43,58.28l.28-.33c-.08-.09-.17-.31-.14,.13-.04-.21-.04,0-.14,.2Z"></path><path class="cls-5" d="M255.2,58.24c-.23-.08-.5-.09-.26-.44-.59,.32-.32,.75,.26,.44Z"></path><path class="cls-5" d="M252.97,57.14l-.32-.1-.13,.3c.06-.15,.54,0,.45-.2Z"></path><path class="cls-5" d="M257.83,58.06c-.03-.15-.23-.35-.32-.53l-.18,.24c.15,.06,.41,.07,.5,.28Z"></path><path class="cls-5" d="M257.51,57.53l.28-.36c-.33,.07-.35,.21-.28,.36Z"></path><polygon class="cls-5" points="255.64 57.02 255.24 57.74 255.76 56.97 255.64 57.02"></polygon><polygon class="cls-5" points="259.18 57.66 259.08 58.05 259.28 57.44 259.18 57.66"></polygon><path class="cls-5" d="M260.06,57.34c-.07,.32,.34,.42,.23,.63,.23-.12,.36-.41,.49-.68-.17,.17-.38,.2-.72,.05Z"></path><path class="cls-5" d="M261.01,56.89c-.08,.09-.15,.24-.23,.4,.09-.09,.17-.21,.23-.4Z"></path><path class="cls-5" d="M258.42,57.05c.05,.08,.18,.29,.41,.33l-.27-.37s-.09,.02-.14,.04Z"></path><path class="cls-5" d="M258.55,57h0c.16-.02,.26-.05,.31-.06-.04,0-.14,.02-.32,.06Z"></path><path class="cls-5" d="M258.38,57.06h.04s-.04-.06-.04,0Z"></path><path class="cls-5" d="M256.71,57.06c.13-.3,.5-.69-.04-.89-.06,.33,.25,.44,.04,.89Z"></path><path class="cls-5" d="M258.05,56.6l-.41,.03c.04,.1,.16,.24,.09,.39l.32-.41Z"></path><polygon class="cls-5" points="258.19 56.41 258.05 56.6 258.2 56.59 258.19 56.41"></polygon><path class="cls-5" d="M260.26,56.67c.11-.22,.29-.29,.49-.37-.24-.02-.48,0-.69,.05,0,.14-.02,.4,.21,.32Z"></path><path class="cls-5" d="M259.42,56.79l.03-.03s-.05-.03-.03,.03Z"></path><polygon class="cls-5" points="262.74 55.82 262.7 55.75 262.7 55.82 262.74 55.82"></polygon><path class="cls-5" d="M259.99,56.29c-.19-.03-.26,.1-.31,.25,.11-.08,.23-.14,.37-.18,0-.06-.01-.1-.06-.07Z"></path><path class="cls-5" d="M261.51,56.55c-.11-.07-.22-.11-.34-.16,.12,.11,.34,.27,.34,.16Z"></path><path class="cls-5" d="M259.53,56.85l-.02,.03c.08,.07,.06,.03,.02-.03Z"></path><path class="cls-5" d="M259.53,56.85c.07-.08,.1-.2,.14-.31-.09,.06-.17,.13-.23,.21,.03,.02,.06,.06,.09,.1Z"></path><path class="cls-5" d="M262.8,53c.05,.4-.33,.84-.81,.52-.32,.38,.23,1.59,.71,2.23-.03-.17-.06-.33,.27-.64-.18-.19-.96-.31-.71-.73,.47-.32,.45,.05,.74,.2-.32-.44,.51-.84,.27-1.53l-.41,.34c-.03-.11,.1-.32-.05-.39Z"></path><path class="cls-5" d="M261.97,55.87l-.14,.08c.19,.02,.36,.15,.66,.4,.21-.25,.23-.4,.22-.54l-.78,.12,.04-.07Z"></path><path class="cls-5" d="M261.13,56.14c.01-.45,.35-.72,0-1.11-.46,.15-.24,.43-.46,.68,.71-.3-.15,.29,.44,.38-.13,.11-.25,.16-.37,.21,.15,.02,.29,.04,.43,.09l-.02-.02h0s0,0,0,0c-.04-.04-.06-.07-.02-.05,0,0,.01-.01,.01-.01-.01-.06,0-.11,0-.17,.23,.03,.06,.1,0,.17v.06s.01,0,.01,0l.68-.41c-.17-.02-.36,.04-.7,.18Z"></path><path class="cls-5" d="M256.78,55.16s.04,.06,.06,.09c.03-.07,.04-.11-.06-.09Z"></path><path class="cls-5" d="M257.17,55.31c-.04,.07-.03,.25-.22,.27-.19-.07-.06-.2-.11-.33-.07,.14-.28,.42,.12,.51l.04-.07c.35,.04,.89,.43,.86,.51-.2-.34-.36-.58-.68-.88Z"></path><path class="cls-5" d="M259.16,55.58l.57-.38-.42-.27,.08,.21c-.38,.02-.23,.26-.22,.44Z"></path><polygon class="cls-5" points="262.86 56.01 262.88 56.47 263.09 55.77 262.86 56.01"></polygon><polygon class="cls-5" points="263.64 55.8 263.68 56.19 263.85 55.92 263.64 55.8"></polygon><path class="cls-5" d="M277.43,73.14l-.11-.18c.04,.08,.07,.14,.11,.18Z"></path><path class="cls-5" d="M277.4,74.45l.19,.04c-.11-.06-.18-.09-.19-.04Z"></path><path class="cls-5" d="M279.51,60.24c-.22,.39-.63,.86-.24,.64l.36-.25c-.14-.12-.16-.25-.12-.39Z"></path><path class="cls-5" d="M285.31,73.03s.09-.05,.14-.08c-.15-.07-.29-.14-.41-.2,.09,.08,.18,.18,.28,.28Z"></path><path class="cls-5" d="M287.1,73.31l-.3,.4c.1-.09,.2-.21,.3-.4Z"></path><path class="cls-5" d="M276.04,66.23l-.48-.08c.08,.3,.26,.11,.48,.08Z"></path><path class="cls-5" d="M271.66,55.11c.2,.19,.36,.27,.5,.32-.21-.29-.39-.67-.5-.32Z"></path><path class="cls-5" d="M282.04,73.66c-.08-.13-.17-.18-.27-.18,.08,.13,.16,.2,.27,.18Z"></path><path class="cls-5" d="M272.75,55.52c-.03-.05-.06-.08-.09-.12-.16,.05-.32,.09-.5,.03,.16,.21,.35,.35,.6,.09Z"></path><path class="cls-5" d="M257.4,58.63s-.05-.02-.07-.04c0,.06,.03,.06,.07,.04Z"></path><path class="cls-5" d="M248.56,56.13c.07-.05,.2-.08,.32-.12-.07-.01-.17,.02-.32,.12Z"></path><path class="cls-5" d="M266.84,55.51c-.16,.05-.02,.05,0,0h0Z"></path><path class="cls-5" d="M265.81,53.9c.03-.05,.05-.12,.04-.22,0,.11-.02,.17-.04,.22Z"></path><path class="cls-5" d="M274.98,53.27h.01c-.03-.09-.02-.07-.01,0Z"></path><path class="cls-5" d="M266.57,55.34c.07,.05,.15,.08,.23,.11-.04-.03-.11-.06-.23-.11Z"></path><path class="cls-5" d="M266.62,55.54c-.06-.01-.11-.02-.15-.03-.01,.07,.01,.12,.15,.03Z"></path><path class="cls-5" d="M267.07,55.46c-.09,.02-.19,0-.27-.02,.04,.03,.05,.05,.04,.06,.05-.01,.12-.02,.23-.05Z"></path><path class="cls-5" d="M271.57,56.68s-.02-.03-.02-.05c-.19,.15-.11,.13,.02,.05Z"></path><path class="cls-5" d="M285.34,62.95s-.02,0-.03-.01v.03s.03-.02,.03-.02Z"></path><path class="cls-5" d="M285.84,63.5c-.6-.12-.58-.29-.53-.53l-1.14,.57,1.67-.04Z"></path><path class="cls-5" d="M277.1,70.04l-.34,.46c-.68-.43-.52-.8-1.01-.36,1.37-.1,.29,1.56,1.64,1.53l-.27,.3c0-.08-.07-.09-.06-.17-.62,.57,1,.35,.84,1.08-.1,.25-.3,.43-.46,.26l.34,.55c-.02,.16-.26,.12-.24-.04,.04,.28,.06,.56,.09,.84h-.04c.21,.12,.53,.4,.67,.56-.2,.23-.14-.13-.31-.07l.31,.55c-.35,.25-.69-.29-.62-.62-.69,.21-.61,.33-.45,.55,.17,.25,.34,.46,.09,1.41-.11-.29-.19-.54-.26-.79-.37,.26-.47,.58-.47,1.02,0,.44,.09,1.01,.27,1.83,0-.23-.05-1.07,.17-1.53,.21-.48,.5-.68,.77-.23-.03,.29,.07,.77,.65,1.17-.44,.23,.16,.92,.85,1.31l-.41,.49c.47,.2,.71,.16,.91,.1,.2-.06,.35-.17,.61-.23,.76,.3,.87,.76,1.06,1.21,.76,.09,.48-.13,.28-.36-.21-.25-.32-.48,.42-.54,.53,.1,1,0,1.41-.22,.4-.22,.77-.56,1.13-1.04,.67-.22,.13,.39,.43,.39,.08-.27,.13-.53,.16-.79,.11-.09,.19,.06,.23,.13,.2-.5-.39-.48-.08-1.12-.23-.29,.17-.38,.58-.64,.41-.25,.83-.69,.54-1.18,.23-.15,.35,.19,.61,.2-.05-.32-.1-.53-.14-.7-.05-.15-.09-.24-.14-.33-.1-.19-.2-.36-.52-.75l.47-.57c-.52,.41-1.03-.21-1.49-.68-.24,.14-.45,.25-.55,.33-.1-.24-.2-.48-.32-.71,.1-.08,.32-.01,.59,.11-.05-.05-.1-.1-.15-.13,.24-.26,.61-.13,.96,.07-.13,.09-.26,.18-.4,.26,.38,.19,.8,.39,1.18,.37-.07-.06-.13-.16-.16-.27,.1,.05,.2,.09,.26,.07,.07-.03-.07-.11-.23-.25l.71-.17-.28-.05c.15-.35,.29-.71,.42-1.08-.77-.74-1.87-1.23-2.34-2.25,.56,.18,.85-.09,1.46-.18-.59,.41,.42,.84,.35,1.48,.03-.32,.33-.29,.44-.22-.24-.35-.49-.68-.74-1.01,.51-.06,.34-.29,.49-.61-.94,.38-.8-.66-1.2-1.01,.32-.1,.68-.08,.71,.46,.62-.74-1.31-.48-.81-1.16,.04,.12,0,.2,.18,.21-.36-.22-.31-.97,.02-.88l.04,.12c-.09-.85-.67-2.43-1.52-2.3,.1-.04,1.01-.19,1.19-.19-1.05-.2-2.1-.4-3.16-.57,.74-.09,2.25-1.08,2.85-.54,.04-.22,.08-.49-.29-.82-.06,.16-.91,.64-1.02,.49,.62-.73,.31-.46,.77-1.29-.08,.25-1.24,.4-1.31,.09,.18,0,1.06-.4,1.21-.33-.45-.13-.88-.26-1.34-.38,.26,.11,.9-.3,1.13-.6-.17,.16-.25-.69-.45-.85l-.1,.43c-.23-.95-1.81-.2-2.16-1,.25-.02,1.4-.42,1.28-.92-.62,.06-2.87,.55-3.61,.31l.19-.3c-.2-.07-.41-.13-.62-.17,.44-.17,1.16-.33,1.92-.4,.76-.08,1.52-.03,2,.06,.02-.45,.28-.29-.06-.76,.15-.34,.56,.01,.67,.15-.19-.43-.38-.85-.63-1.27-.49,.44-1.2-.43-1.59,0,.5,.21,.97,.46,1.45,.73-.54,.41-2.01,.44-2.47-.24,.05-.35,.99-.68,1.15-.84-.24,.04-.95-.34-.89-.52l.54,.03c-.22-.59-1.23,.06-1.3-.84-.13-.17-.04-1.09-.3-.8-.12,.85-1.53,2.76-2.01,3.13,0-.04-.07-.32-.15-.64-.09-.31-.19-.67-.19-.89,0-.69,1.13-1,1.15-1.59-.1,.15-.38,.25-.49,.28-.12-.24,.36-.46-.12-.61-.38,.57-.86-.47-.46,.42-.5-.01-.38-.35-.9-.52-.02,.47-.97,1.22-1.39,1.31,.07-.16,.05-.4,.04-.51-.8-.3-1.2-.7-2.01-.83-.05-.17-.42-.43-.21-.7-.14,.1-.28,.31-.53,.3-.43-.64,.58-.03,.29-.77-.08,.39-.74,.47-1.11,.69,.06,.61,.81,.19,1.21,0-.12,.83-.83,1.63-1.63,1.97-.63,.17-.25-.56-.36-.45-1.21-.18-1.02,1.45-1.99,.86-.41-.52-.06-1.07-.16-1.45,.53-.23,.83,.33,1.18,.29l-.44-.25c.17-.18,.53-.32,.72-.16-.34-.5-2.09-.07-3.09-.41-.16,.2-.43,.41-.27,.61l.29-.11c.31,.4-.5,.65-.11,.82-.37,.34-.74,.87-1.31,.7l-.19-.59c.04,.18,.41,.31,.54,.11-.19,.29-.97-.71-1.1,.13l.45,.36c-.35,.36-.71,1.08-1.21,.98,.32,.56,.1-.09,.55,.55-.44-.83,1.2-.16,.59-1,.47,.76,.65,.26,1.18,.9-.04-.2-.2-.37,.2-.31,.01-.06,.04-.14,.07-.19,.01,0,.02,0,.03,.01l-.02-.02s.01-.04,0,0c-.1-.08-.19-.18-.24-.28,.14-.48,.79-.54,.98-.79,.25,.08-.08,.24,.07,.44l.29-.38c.07,.45,.67,.7,.14,1h.49c.3,.23,.69,.31,.93,.12,.23,.09,.57-.5,.38-.15l.76-.27v.11c.72,.09,1.62-.65,2.32,.29,.25-.07,.53-.16,.89,.05l-.02,.4c.33-.07,.71,.6,.95,.25-.07,1.08,1.11,.66,1.41,1.09l.27-.43c.27,.18,.58,.24,1.04,.33l.26-.37c.54-.04,.53,.86,.92,1.27-.16,.08-.22-.06-.21-.21-.15,.61,.21,.73,.6,.91,.39,.16,.81,.36,.66,.84,.22,.07,.24,.2,.19,.36,0-.01-.02-.02-.04-.03,0,.02,.02,.04,.03,.06-.03,.1-.08,.21-.1,.32,.07-.11,.12-.22,.12-.29,.07,.11,.21,.27,.4,.4l-.4,.28s.02,.02,.03,.03c-.08,.24,.27,.05,.56-.2,.12,.06,.24,.11,.38,.13-.65,.46,.46,.4-.22,.93,.43-.03,.66,.87,1.5,.71-.1,.04-.13,.12-.18,.01,0,.26-.03,.53,.27,.66l-.55,.29,.95,.27c-.26,.43-.43,.61-.97,.44,.92,.54,.45,.53,1.33,.98l-.39,.08c.08,.23,.7,.46,.43,.69-.57,.72,.64,2.61,.15,4.02,1.11-.45-.41,.68,.48,.58-.26,.12-.39,.31-.66,.14,.36,.61-.32,.98,.46,1.36-.27,.09-.41-.11-.57-.04,.06,.04,.25,.18,.09,.25-.16,.07-.24-.08-.36-.17,.08,.6,.92,.66,1.71,.7-.37,.35-.33,.5,.18,.77-.27,.11-.55,.28-.62-.13-.02,.24-.5,1.33,.12,1.45-.17,.06-.09,.3-.03,.35-.14,.4-.2,.41-.31,.77,.05-.01,.1-.03,.14-.05,.62,.49,0,.4-.12,.68l-.05-.06c-.43,.07-.42,.11-.45,.2-.01,.08-.07,.19-.47,.01l.21,.43c.17,.49-.09,.44-.34,.25-.27-.18-.44-.49-.62-.32,.03,.1,.06,.19,.11,.29-.13,.18-.27-.21-.23-.63,.02-.21,.07-.43,.15-.59,.06-.13,0,0,0,0-.03,.05-.05,.08-.07,.11-.04,.06,.06-.09,.1-.17-.19,.34-.26,.36-.25,.36,0,0,.03,0-.21,.2-.05,.03-.02,.01-.02,.01h0s-.01,.01-.01,.01h0s0,0,0,0h0s0,0,0,0h0s.37-.26,.37-.26h0s.04-.02,.07-.04c.03-.01,.08-.05,.26-.11,.07-.02,.21-.07,.36-.1,.07-.02,.03,0,.02,0h-.04s-.06,0-.09,0c-.24-.05-.43-.37-.1-.62-.26,.1-.53,.22-.72-.06-.08-.43,1.03-1.27,.2-1.7,.07-.06,.14-.08,.2-.09-.21-.37-.37-1.19-.83-1.39,.83-.2,.59-.77,.33-1.28-.26-.51-.55-.95,.21-1.03-.06-.37-.15-.74-.22-1.12h.16c0-.73-.42-.92-.82-1.11,.07-.18,.23-.09,.32-.09,.1-1.09,0-1.21-.94-1.87l.46-.21c-.33-.15,.36-1.7-.54-2.52,.06,0,.15-.02,.25,.04-.9-.89,.26-3.19-1.58-2.86l-.72-.51c.28,.94-.77,.2-.87,.69-.25-.29,.06-1.11,.35-.74l-.05,.1c.92-.26-.24-1.23,.32-1.52-.51-.88-1.02-1.89-1.84-2.79-.8-.9-1.94-1.62-3.03-1.9,.02,.26,.04,.51,.05,.77-.23-.08-.46-.15-.69-.21-.15-.2-.15-.62,.37-.47-.2-.48-.93,.18-.96,.34-.93-.42,.5-.79,.21-.85h-.43s.08,.09,.08,.09c-.37,.26-.43,.56-1,.49-.35-.17-.16-.46-.3-.5,0-.05-.04-.08-.22-.03l-.83-.08,.32,.58c-.36,.28-.75-.04-.39,.62-.54-1.03-2.92-.31-3.25-.6-.47,.44-.94,.47-1.53,.45,.16,.11,.28,.75-.22,.71,.09-1.35-.97-.51-1.47-1.43,.43,.6-1.44,.3-.77,1.15-.43-.07-.08-.5-.43-.78-.95,.63-2.27-.07-3.5,.3,0,.18,.26,.41,.03,.71l-.8-.76c-.23,.13-.06,1.04-.61,.52,.09,.13,.22,.34,.07,.42-2.6-.42-4.74,1.66-7.55,.75,.42,.24,.21,.33-.04,.41,.18,.03,.11,.42,.21,.64l-1.18-.35c0,.68-1.06,.36-.98,1l.28-.2c-.2,.84,1.06,1.41,1.26,2.35,.23-.94,1.54,.86,1.97-.5,.22,.15-.06,.34,.08,.53,.08-.45,.29-.59,.77-.52l-.02,.11c1.18-.39,1.79-.13,3.19-.15l-.2-.44c.3,0,.4,.13,.56,.22,.19-.77-.83,.13-.69-.71,.58,.85,2.07-.4,2.54,.63,.45-.07-.23-.52,.22-.59l.17,.27,.05-.4c.31,.01,.52,.35,.57,.6-.08-.02-.19,.1-.26,.14,.44,.27,1.05-.29,1.2-.2l-.46-.11c1.19-.48,2.74-.28,3.86-1.01l-.11-.21c.88-.5,.76,.16,1.75-.11l-.03,.06c.18-.24,.45-.37,.73-.37-.24,.28,.51,.48,.2,.79,.96-.5,.47-.38,1.08-1.25l.17,.36c.21-.34,.22-.52,.73-.64-.4,.34,.34,.55-.1,.99,1.07,.77,1.56-.86,2.05,.32,.48-1.03-.92-.56-.65-.78-.24-.33,.39-.78,.73-.67,.34,.02,.58,1.31,1.36,1.32-.08,0-.09,.07-.16,.06,.27,.27,.6-.32,.9,.14,.26-.6,.42,.09,.59-.68-.24,.02-.48,.06-.72,.09,.4-.17,.96-1.04,1.53-.44-.09,.14-.33,.3-.48,.39,.13,.27,.38-.07,.49,.21-.25,.74-.79-.02-1.29,.53,.14,.35,.82-.45,.47,.36,.23-.51,.4-.44,.55-.33,.15,.11,.27,.25,.61-.05l-.21,.43c.08-.05,.28-.2,.38-.14-.15,.15-.3,.31-.43,.47,.22-.18,.3-.02,.32,.17,.02,.19,0,.38,.17,.34-.39-.27,.25-.53,.25-.95,.51-.05,.42,.31,.26,.64-.16,.36-.38,.68-.06,.92-.11-.04-.04-.49,.23-.51,.03,.19,.02,.47-.12,.7,.42,.45,.35-.36,.74-.3-.36,.5,.38,.15,.71,.36l-.42,.24c.14,.92,1-.27,1.05,.65l-.76-.02,.35,.31-.53,.16c.58,.24,.54,.43,.59,.91,.26-.24,.83-.31,1.01,.08-.15,.38-.48,.03-.19,.55-.33,0-.73,0-.42-.4-.15,.04-.33,0-.48,.04-.19,.4,.22,.72,.3,.91-.01-.08-.03-.18,.02-.25,.32,.17,.62,.36,.93,.54-.12,.19-.3,.14-.47,.09,.11,.14,.36,.17,.48,.4-.39,.07-.76,.22-1.06-.04,.23,.19,.45,.39,.67,.6-.14,.11-.31,.53-.48,.48-.09,.47,1.05,.8,.9,1.45,.08,.01,.17,.05,.25,.16,.04,.56-.32,1.12,.33,1.66l-.62,.49c.24,.47,.79-.65,1.19,.15,.32,.57-.55,.32-.71,.55,.38,.24,1.19,.68,.67,1.3-.15-.17-.06-.32-.13-.49Zm.64,7.1c-.17-.21-.54-.65-.27-.83,.58,.19,.32,.37,.27,.83Zm8.49-5.16c.17,.1,.09,.27-.09,.45-.04-.13-.02-.28,.09-.45Zm-17.59-17v-.02c.29,.18,.19,.11,0,.02Zm-.58-.18c-.05,.07-.05,.14-.02,.2,.03-.12,.16-.14,.31-.11-.05-.12-.12-.21-.29-.09Zm1.93-1.56l.12,.13c-.3,.12-.21,0-.12-.13Z"></path><path class="cls-5" d="M286.89,73.27c-.08,.04-.17,.05-.26,.05,.08,.06,.17,.07,.26-.05Z"></path><path class="cls-5" d="M276.13,66.25s0-.01,0-.02c-.03,0-.06,0-.09,0l.09,.02Z"></path><path class="cls-5" d="M278.18,52.55c.1,.14,.12,.25,.13,.36,.07-.1,.06-.22-.13-.36Z"></path><path class="cls-5" d="M265.15,55.94l.34-.18c-.17,.05-.25-.04-.35-.11,.03,.11,.12,.26,0,.29Z"></path><path class="cls-5" d="M261.32,53.66c-.04,.07-.12,.04-.16,.11l.07,.21c.23-.07,.36-.29,.09-.32Z"></path><path class="cls-5" d="M264.55,54.42c-.1-.4-.31-.22-.56-.1,.02,0,.03-.01,.05,0,.02,.57,.27,.33,.52,.11Z"></path><path class="cls-5" d="M263.93,54.34c-.08,.03-.16,.06-.24,.05,.01,.23,.11,.03,.24-.05Z"></path><path class="cls-5" d="M267.36,55.12c-.13-.1-.03,.52-.11,.36-.09,.52,.75-.68,.11-.36Z"></path><polygon class="cls-5" points="264.11 53.13 264.29 53.61 264.38 53.19 264.11 53.13"></polygon><path class="cls-5" d="M266.32,53.19l-.45-.09c.02,.08-.03,.14-.1,.18,.27-.02,.57,.05,.55-.1Z"></path><path class="cls-5" d="M265.77,53.29c-.14,0-.27,.04-.34,.13,.07-.02,.23-.05,.34-.13Z"></path><polygon class="cls-5" points="264.69 52.89 264.83 52.97 265.15 52.96 264.69 52.89"></polygon><path class="cls-5" d="M270.99,53.14l.48-.11c.06-.17-.06-.28-.24-.22-.12,.11-.3,.17-.24,.34Z"></path><path class="cls-5" d="M269.56,51.73c.13,.1,.14,.21,.22,.38l.02-.62-.24,.24Z"></path><path class="cls-5" d="M271.03,51.63c.06-.17,.77-.45,.12-.45-.06,.17-.58,.28-.12,.45Z"></path><path class="cls-5" d="M278.02,54.43s-.07-.04-.11-.06l-.53,.87,.64-.81Z"></path><path class="cls-5" d="M284.36,58.34c-.08-.7-.63,.14-.62-.53-.28-.02,0,.54-.26,.5,.4,.23,.36,.48,.88,.03Z"></path><path class="cls-5" d="M283.48,58.31c-.06-.04-.14-.07-.22-.1,.11,.07,.17,.09,.22,.1Z"></path><polygon class="cls-5" points="247.08 55.99 246.66 55.9 246.99 56.15 247.08 55.99"></polygon><path class="cls-5" d="M246.6,56.92l-.28-.59-.04,.63c.07-.05,.21-.15,.32-.03Z"></path><path class="cls-5" d="M277.98,80.04l.17-.06c-.01-.24-.19-.4-.51-.88,.09,.33,.21,.64,.35,.94Z"></path><polygon class="cls-5" points="276.79 72.73 276.78 72.81 277.36 72.64 276.79 72.73"></polygon><path class="cls-5" d="M275.7,69.07c0,.15,.16,.31,.15,.46-.14-.31,.56-.62-.15-.46Z"></path></g></g><g><path class="cls-2" d="M306.75,130.25c1.16-4.53,2.31-9.06,3.47-13.58-.83-1.33-.81-.19-1.21-.29,.04-.3,.09-.6,.14-.9l-3.17-.34c-15.2-3.41-30.41-6.82-45.61-10.22-15.17-3.57-30.33-7.14-45.5-10.71l-3-1.08c-.09,.29-.18,.58-.27,.87-.4-.09-.81-.18-1.21-.27-.94,4.58-1.87,9.16-2.81,13.74-1.39,5.01-2.66,10.05-3.82,15.12-1.14,5-2.11,10.28-1.93,15.37-.17,3.46,.26,6.83,2.1,9.72,.09,.13,.21,.24,.3,.37,.04,.08,.06,.16,.1,.24,5.37,10.24,18.14,13.6,29.47,15.93,4.12,.84,20.52,4.61,24.59,5.65,11.21,2.85,24.16,5.4,33.47-1.46,.07-.05,.13-.12,.2-.17,.14-.08,.29-.12,.43-.2,2.92-1.79,4.78-4.63,6.14-7.82,2.39-4.5,3.82-9.67,4.98-14.67,1.17-5.07,2.22-10.16,3.16-15.27Z"></path><path class="cls-2" d="M308.21,130.12c.94-3.67,1.87-7.34,2.81-11.01,.33-1.28,1.28-3.03-.23-3.88-.56-.31-1.3-.26-1.87,0-.2,.09-.37,.21-.54,.34-.04,.03-.47,.37-.21,.2l1.09-.39h-.11c.44,.29,.88,.58,1.32,.88,.05-.3,.09-.6,.14-.9,.08-.55-.5-.82-.95-.87-5.15-.54-10.16-1.91-15.22-3.04-7.2-1.61-14.4-3.23-21.59-4.84-14.23-3.19-28.43-6.56-42.62-9.91-5.86-1.38-11.86-2.46-17.52-4.5-.86-.31-2.04,.18-2.31,1.06-.09,.29-.18,.58-.27,.87l2.31-1.06c-.4-.09-.81-.18-1.21-.27-.82-.18-2.11,.08-2.31,1.06-.82,4.03-1.65,8.05-2.47,12.08s-2.02,7.86-2.98,11.8c-1.86,7.61-3.56,15.29-3.1,23.18,.1,1.74,.4,3.47,1.05,5.09,.56,1.39,1.4,2.67,2.17,3.96,1.45,2.41,3.4,4.46,5.61,6.19,4.66,3.64,10.42,5.71,16.08,7.22,4.44,1.18,8.97,2.03,13.46,3.04,4.82,1.08,9.64,2.19,14.45,3.33,11.21,2.65,23.52,6.56,34.77,1.98,1.47-.6,2.89-1.37,4.2-2.26,1.21-.82,2.44-1.57,3.52-2.58,2.47-2.32,3.9-5.48,5.28-8.51,3.19-6.99,4.59-14.77,6.1-22.26,.4-1.99,.79-3.99,1.15-5.98,.25-1.36-2.7-.97-2.93,.26-1.39,7.55-2.77,15.26-5.12,22.58-1.06,3.29-2.44,6.57-4.15,9.59-1.55,2.74-3.78,4.48-6.41,6.11-5.36,3.33-11.97,3.49-18.05,2.75-5.18-.63-10.21-2-15.28-3.21-8.46-2.02-16.98-3.82-25.46-5.75-5.6-1.28-11.29-2.87-16.27-5.81-2.4-1.42-4.62-3.15-6.42-5.3-.8-.96-1.54-1.99-2.14-3.08-.8-1.46-1.68-2.78-2.14-4.42-.52-1.83-.61-3.7-.59-5.6,.03-2.18,.04-4.33,.28-6.51,.47-4.26,1.45-8.45,2.45-12.62,1.02-4.25,2.36-8.47,3.24-12.75,.87-4.26,1.74-8.53,2.61-12.79l-2.31,1.06c.4,.09,.81,.18,1.21,.27,.89,.2,2.02-.1,2.31-1.06,.09-.29,.18-.58,.27-.87-.77,.35-1.54,.71-2.31,1.06,4.9,1.77,10.03,2.74,15.1,3.93,7.18,1.69,14.36,3.38,21.54,5.07,14.44,3.4,28.92,6.62,43.4,9.86,5.83,1.31,11.64,2.93,17.58,3.56l-.95-.87c-.04,.3-.09,.6-.14,.9-.11,.72,.81,.89,1.32,.87,.44-.02,.88-.17,1.25-.43,.12-.09,.24-.19,.34-.3,.24-.25,.14-.03-.28,.15l-1.14,.21c-.34-.18-.47-.09-.4,.25-.08,.31-.16,.62-.24,.94-.16,.62-.32,1.25-.48,1.87-.28,1.09-.56,2.19-.84,3.28-.6,2.34-1.2,4.68-1.8,7.03-.34,1.31,2.62,.95,2.93-.26Z"></path></g><g><path class="cls-5" d="M246.44,137.98c-2.71-2.55-2.3-6.49-1.34-9.73,.89-3.01,2.53-6.3,5.94-7.09,1.08-.25,2.23-.21,3.36-.06,2.27,.31,4.56,1.12,6.18,2.63,2.32,2.16,2.86,5.42,2.11,8.2-.75,2.78-2.6,5.16-4.57,7.37-.32,.36-.66,.75-.7,1.22-.03,.46,.23,.91,.47,1.33,1.73,3.03,2.77,6.34,3.05,9.67-7.59-2.13-15.37-3.64-23.2-4.5,3.17-3.21,6.33-6.41,9.5-9.62"></path><path class="cls-5" d="M247.8,137.48c-2.67-2.66-2.19-6.67-1.13-9.96,.5-1.56,1.18-3.16,2.28-4.41,1.43-1.62,3-1.71,5.05-1.32,3.89,.74,7.17,3.26,7.51,7.41s-2.35,7.37-4.83,10.34c-.59,.71-.9,1.32-.51,2.21,.47,1.06,1.1,2.04,1.56,3.12,.95,2.25,1.52,4.61,1.75,7.03l2.64-.95c-7.68-2.14-15.52-3.64-23.45-4.53l.37,.49c3.17-3.21,6.33-6.41,9.5-9.62,.46-.46-.41-.49-.69-.48-.6,.03-1.49,.24-1.94,.69-3.17,3.21-6.33,6.41-9.5,9.62-.34,.34,.07,.45,.37,.49,7.76,.86,15.43,2.37,22.95,4.47,.49,.14,2.71-.19,2.64-.95-.23-2.5-.84-4.93-1.84-7.24-.44-1.02-1.22-2.02-1.55-3.08-.39-1.27,1.07-2.32,1.8-3.23,2.57-3.18,4.67-7.26,3.12-11.38-1.53-4.08-6.21-5.82-10.28-5.81-4.15,0-7.5,2.14-9.17,5.92-1.68,3.8-2.62,8.93,.61,12.16,.53,.53,3.18-.54,2.73-.99h0Z"></path></g><g class="cls-4"><path class="cls-5" d="M209.61,149.67c2.88,3.19,14.81,11.13,19.04,8.72-.83-3.83-4.6-5.73-7.19-8.28-5.96-5.86-6.04-15.41-4.45-23.61,1.59-8.2,4.46-16.48,2.99-24.71-1.11-6.21-5.01-7.4-7.21-1.32-2.21,6.12-3.46,12.78-5.16,19.06-1.38,5.08-2.76,10.23-2.84,15.49s1.29,10.74,4.82,14.65Z"></path><g><path class="cls-5" d="M211.32,147.92c.09,.17,.36-.17,.43-.2-.26-.17-.51,.27-.43,.2Z"></path><path class="cls-5" d="M208.73,145.89l.18-.03c-.21-.07-.4-.14-.6-.23,.14,.09,.27,.18,.42,.26Z"></path><path class="cls-5" d="M207.49,143.07c-.58,.53,.5,1.02,.49,1.61l-.11,.15,.62-.02c-.36-.55-1.04-1.22-1-1.75Z"></path><path class="cls-5" d="M208.5,141.1c-.24,.16-.32-.26,.01,.37,.02-.04,.03-.06,.05-.08-.02-.06-.05-.14-.06-.29Z"></path><path class="cls-5" d="M208.56,141.38c.1,.29,.17-.25,0,0h0Z"></path><path class="cls-5" d="M208.08,140.04c.11,.12,.21,.24,.32,.35,.14-.12,.11-.47,.25-.37-.21-.37-.36-.27-.57,.02Z"></path><path class="cls-5" d="M207.5,139.75l.14,.19c.06-.05,.07-.11-.14-.19Z"></path><path class="cls-5" d="M207.94,140.35l-.3-.4c-.1,.08-.33,.13,.12,.19-.21,0,0,.05,.19,.21Z"></path><path class="cls-5" d="M207.9,140.62c-.1,.26-.12,.58-.46,.23,.28,.77,.74,.51,.46-.23Z"></path><path class="cls-5" d="M206.74,143.16l-.09,.39,.33,.19c-.17-.09-.03-.67-.24-.58Z"></path><path class="cls-5" d="M208.09,137.46c-.15-.01-.39,.17-.58,.22l.21,.29c.08-.17,.15-.47,.38-.51Z"></path><path class="cls-5" d="M207.51,137.69l-.29-.44c0,.42,.13,.49,.29,.44Z"></path><polygon class="cls-5" points="206.7 139.81 207.39 140.47 206.67 139.66 206.7 139.81"></polygon><polygon class="cls-5" points="208.03 135.74 208.39 135.99 207.85 135.54 208.03 135.74"></polygon><path class="cls-5" d="M207.98,134.57c.29,.2,.5-.25,.67-.04-.05-.31-.28-.59-.49-.85,.11,.27,.06,.54-.19,.89Z"></path><path class="cls-5" d="M207.87,133.25c.06,.14,.18,.28,.3,.44-.06-.14-.15-.29-.3-.44Z"></path><path class="cls-5" d="M207.25,136.44c.09-.04,.33-.12,.42-.38l-.42,.19c0,.06,0,.12,0,.18Z"></path><path class="cls-5" d="M207.23,136.26h.01c0-.21,0-.35,.01-.4,0,.05-.01,.17-.02,.4Z"></path><path class="cls-5" d="M207.25,136.49v-.05s-.05,.03,0,.05Z"></path><path class="cls-5" d="M206.9,138.52c-.27-.24-.59-.82-.89-.2,.31,.17,.48-.18,.89,.2Z"></path><path class="cls-5" d="M206.72,136.74c-.03,.17-.04,.34-.06,.51,.11-.02,.27-.12,.4,0-.11-.17-.23-.34-.33-.52Z"></path><polygon class="cls-5" points="206.58 136.5 206.72 136.74 206.75 136.55 206.58 136.5"></polygon><path class="cls-5" d="M207.42,134.08c-.17-.23-.17-.47-.19-.74-.1,.28-.17,.58-.18,.87,.13,.05,.37,.18,.37-.13Z"></path><path class="cls-5" d="M207.27,135.15l-.02-.05s-.05,.05,.02,.05Z"></path><polygon class="cls-5" points="207.52 130.66 207.44 130.7 207.51 130.72 207.52 130.66"></polygon><path class="cls-5" d="M206.97,134.26c-.09,.22,.01,.35,.14,.48-.04-.16-.06-.34-.06-.52-.06-.02-.1-.03-.08,.05Z"></path><path class="cls-5" d="M207.73,132.5c-.1,.1-.19,.23-.27,.35,.14-.1,.37-.3,.27-.35Z"></path><path class="cls-5" d="M207.36,135.03l.02,.03c.09-.07,.05-.06-.02-.03Z"></path><path class="cls-5" d="M207.36,135.03c-.06-.11-.16-.2-.25-.29,.03,.13,.07,.26,.13,.36,.03-.03,.08-.05,.12-.07Z"></path><path class="cls-5" d="M204.93,129.41c.39,.11,.65,.76,.16,1.23,.22,.56,1.56,.38,2.34,.05-.17-.04-.33-.06-.48-.61-.25,.14-.66,1.07-.96,.59-.11-.72,.22-.55,.48-.85-.54,.21-.57-1-1.3-.97l.15,.66c-.11,0-.26-.26-.38-.1Z"></path><path class="cls-5" d="M207.27,131.65l.02,.21c.1-.23,.27-.38,.62-.65-.15-.37-.28-.46-.41-.5l-.19,1.02-.05-.08Z"></path><path class="cls-5" d="M207.21,132.8c-.42-.2-.55-.72-1.05-.46-.02,.63,.32,.47,.48,.85-.02-1,.21,.3,.52-.39,.06,.2,.06,.37,.07,.54,.06-.17,.15-.34,.24-.49l-.03,.02h0s0,0,0,0c-.06,.04-.09,.05-.06,0,0,0,0-.02,0-.02-.06-.01-.11-.03-.16-.06,.11-.28,.12-.03,.16,.06,.02,0,.04,.01,.06,.02h0c-.05-.34-.1-.67-.14-1.01-.08,.2-.1,.47-.09,.93Z"></path><path class="cls-5" d="M205.03,137.86s.07-.04,.1-.04c-.06-.06-.1-.09-.1,.04Z"></path><path class="cls-5" d="M205.26,137.41c.07,.07,.24,.12,.22,.37-.11,.22-.21,.02-.35,.04,.12,.14,.36,.48,.52,0l-.06-.07c.12-.43,.61-.98,.68-.91-.38,.14-.65,.26-1.01,.56Z"></path><path class="cls-5" d="M206.03,135.01l-.19-.85-.39,.42,.22-.02c-.1,.48,.18,.38,.35,.45Z"></path><polygon class="cls-5" points="207.74 130.6 208.18 130.77 207.61 130.21 207.74 130.6"></polygon><polygon class="cls-5" points="207.86 129.53 208.24 129.63 208.05 129.31 207.86 129.53"></polygon><path class="cls-5" d="M219.94,124.06l.06,.27c0-.12-.03-.21-.06-.27Z"></path><path class="cls-5" d="M220.37,122.26l-.18-.09c.09,.11,.15,.16,.18,.09Z"></path><path class="cls-5" d="M214.61,102.81c.23-.09,.53-.26,.67-.27,.15-.02,.19-.05-.02-.12l-.43-.1c.03,.13-.1,.39-.23,.49Z"></path><path class="cls-5" d="M220.49,106.68l.13-.11c-.15-.09-.29-.17-.42-.25,.1,.11,.18,.23,.28,.36Z"></path><path class="cls-5" d="M222.29,106.97l-.29,.52c.1-.11,.2-.28,.29-.52Z"></path><path class="cls-5" d="M218.99,133.71l.43,.29c.01-.43-.22-.25-.43-.29Z"></path><path class="cls-5" d="M210.38,118.37c.25-.28,.38-.51,.46-.73-.34,.32-.78,.54-.46,.73Z"></path><path class="cls-5" d="M215.61,122.34c.04,.17,.11,.26,.21,.27-.04-.18-.1-.28-.21-.27Z"></path><path class="cls-5" d="M211.06,116.72c-.06,.05-.09,.09-.14,.14,.01,.25,.01,.5-.09,.77,.25-.24,.44-.53,.23-.92Z"></path><path class="cls-5" d="M223.17,160.61s-.09-.06-.14-.09c.04,.08,.09,.09,.14,.09Z"></path><path class="cls-5" d="M213.11,150.26c.09,.04,.22,.14,.35,.23-.04-.07-.15-.14-.35-.23Z"></path><path class="cls-5" d="M208.94,125.26c-.03,.23,.04,.05,0,0h0Z"></path><path class="cls-5" d="M207.01,125.99c-.04-.06-.09-.11-.18-.14,.1,.04,.15,.09,.18,.14Z"></path><path class="cls-5" d="M209.01,113.74v-.02c-.09,.05-.07,.04,0,.02Z"></path><path class="cls-5" d="M208.67,125.56c.07-.07,.14-.16,.2-.26-.04,.04-.11,.12-.2,.26Z"></path><path class="cls-5" d="M208.88,125.56c-.04,.08-.06,.13-.09,.19,.06,.05,.11,.03,.09-.19Z"></path><path class="cls-5" d="M208.99,124.94c-.02,.13-.07,.25-.13,.36,.04-.04,.07-.05,.08-.04,.01-.07,.03-.16,.05-.32Z"></path><path class="cls-5" d="M222.56,149.26s0,.04,0,.06c.48,.2,.33,.1,0-.06Z"></path><path class="cls-5" d="M215.08,94.71s-.02,.02-.03,.03c.01,0,.03,0,.05,0l-.02-.03Z"></path><path class="cls-5" d="M216.19,94.15c-.25,.3-.43,.44-.6,.5-.16,.09-.31,.09-.5,.09,.18,.38,.34,.77,.48,1.15,.14-.62,.37-1.16,.62-1.74Z"></path><path class="cls-5" d="M219.21,128.33l.49-.5c.5,.79,.22,1.24,.84,.8-1.33-.3,.26-2.2-1.04-2.56l.36-.33c-.04,.11,.04,.14,0,.25,.79-.61-.85-.76-.45-1.69,.17-.32,.42-.51,.53-.24l-.16-.83c.08-.21,.29-.11,.22,.1l.15-1.18,.04,.02c-.17-.21-.41-.66-.5-.88,.26-.25,.11,.18,.29,.14l-.17-.72c.4-.18,.61,.43,.46,.86,1.46-.3-.21-.61,.86-1.74l.03,.65c.84-.23,.68-.76,1.3-1.36-.28,.12-1.49,1.13-1.66,.35,.15-.17,.25-.43,.07-.87,.47,.1,.44-.3,.51-.77l.62,.17c-.07-.55-.4-.58-.62-.94,.18-.56,.69-.58,1.13-.63,.28-.9-.9,.48-.81-.63,.38-.72,.23-1.31,0-2.29,.31-.51,.37,.16,.58,0l-.43-.56c.03-.12,.18-.05,.26-.02-.14-.44-.63-.13-.71-.79-.67-.25,1.2-1.18,.47-2.07,.2-.18,.38,.13,.63,.09-.42-1.15-.31-.99-.95-1.93,.16-.25,.3-.5,.44-.75-.49,.55-1.04-.19-1.5-.8-.24,.19-.44,.35-.54,.46-.11-.32-.21-.64-.34-.95,.1-.12,.32-.02,.6,.13-.05-.07-.11-.13-.16-.17,.23-.35,.6-.18,.97,.07-.12,.12-.25,.24-.39,.36,.38,.24,.81,.48,1.19,.43-.07-.07-.13-.19-.17-.33,.1,.07,.2,.11,.26,.08,.07-.03-.07-.14-.23-.31l.71-.24-.28-.05,.4-1.37c-.79-.94-1.91-1.64-2.43-3.01,.57,.27,.85-.07,1.47-.16-.6,.52,.47,1.12,.41,1.94,.03-.42,.33-.36,.45-.27-.24-.46-.53-.9-.79-1.34,.25-.02,.34-.11,.37-.25,.04-.13,.04-.3,.07-.61-.91,.58-.91-1.2-1.47-1.69,.26-.24,.64-.27,.85,.68,.21-.68-.21-.88-.56-1-.36-.14-.71-.15-.67-.78,.1,.18,.1,.31,.27,.27-.23-.11-.41-.46-.51-.8-.13-.31-.17-.61,0-.62l.12,.17c-.33-.65-1.02-1.46-1.79-1.82-.78-.34-1.54-.22-1.64,.22-.01-.11,.24-1.01,.35-1.17-.92,.84-1.65,1.8-1.72,3.68-.03-.28-.11-.62-.21-.99-.02-.09-.05-.18-.08-.27l-.07-.2-.13-.42c-.15-.55-.26-1.18,.25-1.6-.17-.02-.35,.02-.55,.12-.21,.1-.46,.26-.68,.62,.23-.04,.73,.72,.55,.97-.4-.15-.56-.17-.72-.16-.17,0-.3,.08-.84,.16,.31-.11,.62,1.23,.39,1.58-.06-.22-.71-.95-.66-1.23-.04,.74-.04,1.41,.06,2.05-.01-.42-.67-.79-1.06-.68,.12,0-.02,.3-.21,.65-.19,.36-.4,.77-.4,.95,.14-.14,.28-.27,.45-.42-.38,.69-.11,1.2,.15,1.66,.26,.47,.6,.83,.38,1.38-.18-.2-1.25-.78-1.57-.25,.46,.45,2.28,1.98,2.43,3.05l-.37,.09,.15,.84c-.71-.69-2.08-2.51-2.52-3.46-.38,.35-.41,0-.58,.65-.36,.14-.34-.48-.3-.68l-.64,1.44c.66,.12,.32,1.33,.88,1.42l-.21-1.8c.66,.13,1.56,1.46,1.16,2.46-.33,.19-1.1-.52-1.32-.55,.18,.2,.16,1.11-.03,1.17l-.23-.54c-.4,.52,.61,1.18-.2,1.72-.11,.23-1.02,.51-.65,.65,.84-.21,3.16,.31,3.65,.71-.07,.07-1.03,1.07-1.46,1.26-.68,.25-1.24-.94-1.83-.73,.17,.06,.34,.33,.39,.44-.21,.22-.53-.24-.58,.33,.64,.25-.33,1.1,.5,.4,.06,.58-.28,.54-.4,1.18,.48-.1,1.32,.92,1.38,1.5-.16-.07-.41,0-.52,.03-.33,1.09-.77,1.6-1.03,2.62-.18,.05-.5,.5-.73,.22,.08,.18,.27,.37,.21,.69-.73,.46,.09-.72-.71-.43,.37,.14,.32,.95,.44,1.45,.63,.02,.38-1.01,.25-1.51,.82,.2,1.48,1.2,1.57,2.38-.02,.91-.62,.23-.55,.41-.57,1.55,1.06,1.74,.12,2.89-.66,.38-1.04-.25-1.45-.23-.02-.74,.61-.97,.71-1.44l-.4,.51c-.11-.27-.12-.76,.1-.97-.59,.31-.81,2.66-1.54,3.79,.12,.26,.21,.69,.46,.56l.02-.41c.51-.25,.41,.87,.72,.43,.17,.59,.5,1.28,.1,1.95h-.63c.18,.03,.46-.39,.33-.64,.19,.36-1.06,.95-.34,1.45l.52-.43c.19,.59,.7,1.34,.4,1.94,.65-.18-.05-.16,.74-.48-.95,.22,.36-1.61-.67-1.17,.9-.29,.51-.73,1.33-1.18-.2-.03-.43,.13-.21-.38-.05-.04-.11-.11-.15-.16,.01-.01,.01-.02,.02-.03l-.03,.02s-.03-.03-.01,0c-.12,.11-.25,.19-.36,.2-.39-.37-.17-1.23-.33-1.58,.17-.3,.19,.19,.44,.07l-.24-.52c.45,.07,.94-.66,1,.15l.19-.67c.35-.33,.59-.86,.5-1.25,.18-.3-.26-.94,0-.57l.02-1.14,.11,.02c.34-1.06-.13-2.41,.96-3.44-.02-.39-.06-.8,.21-1.37l.41-.03c-.02-.5,.72-1.3,.37-1.59,1.14-.25,.76-2.18,1.14-2.94l-.48-.15c.17-.54,.16-1.11,.14-1.84l-.44-.07c-.2-.68,.7-1.43,.92-2.36,.15,.11,.04,.33-.11,.47,1.28-.82-.05-2.52,.97-3.29-.08-.29,.03-.45,.19-.59,0,.02,0,.05,0,.07,.01-.02,.03-.06,.04-.1,.11-.08,.23-.16,.34-.26-.14,.07-.25,.14-.32,.21,.05-.18,.1-.51,.07-.78l.48,.09s0-.03,0-.04c.22-.09-.16-.23-.53-.27-.04-.13-.09-.26-.17-.38,.75,.19-.03-.67,.72-.29-.31-.36,.04-.85-.4-1.84,.07,.11,.14,.12,.08,.21,.2-.09,.34-.15,.36-.59,.12,.23,.24,.46,.35,.7-.04-.45-.05-.93,.02-1.42,.38,.31,.47,.64,.41,1.43,.12-.66,.27-.83,.37-.94,.12-.13,.19-.26,.57-.77l-.09,.6c.1,0,.25-.14,.4-.24,.14-.08,.27-.07,.27,.2,.06,.68,.4,1.06,.63,1.63,.24,.54,.41,1.27,.16,1.81,1.1-.52-.4,.85,.5,.79-.26,.14-.38,.39-.66,.15,.41,.83-.31,1.33,.52,1.87-.27,.12-.42-.16-.58-.06,.07,.06,.26,.26,.09,.36-.16,.1-.23-.12-.36-.24,.08,.87,.93,.94,1.73,1-.36,.48-.32,.7,.2,1.06-.26,.16-.54,.43-.62-.15-.02,.33-.45,1.95,.17,2.03-.17,.09-.07,.45-.01,.55-.12,.73-.17,.79-.2,1.52l.13-.19c.73,.38,.09,.63,.1,1.22l-.08-.03c-.75,1.26,.17,.63-.66,1.84h.48c.99,.32-.81,1.08-.58,1.92l.33-.22c.26,.49-1.62,.89-1.83,1.28-.11,.07-.11-.17-.15-.31-.83,.96,.58,.27,.55,1.12-.36,.08-.8-.38-.98,.16-.32,.21,.71,1.84-.09,2.46,.29-.11,.58-.22,.69,.21-.04,.61-1.33,1.38-.64,2.1-.09,.06-.16,.07-.22,.06,.1,.5,.02,1.56,.4,1.93-1.72,.09,.22,3.01-1.27,2.73-.07,.49-.1,.98-.15,1.47l-.15-.06c-.25,.92,.1,1.3,.42,1.67-.13,.2-.25,.03-.33,0-.46,1.33-.39,1.5,.3,2.69l-.5,.1c.14,.16-.08,.65-.25,1.28-.15,.63-.29,1.41,.04,2.09-.06-.01-.15-.04-.23-.14,.32,.76,.04,1.71-.05,2.55-.12,.84,0,1.56,.93,1.68,.19,.31,.42,.62,.64,.91-.16-1.3,.81,.02,.98-.56,.21,.45-.24,1.38-.47,.8l.07-.12c-.48,0-.47,.41-.42,.84,.07,.43,.21,.87-.1,.95,.39,1.26,.82,2.52,1.31,3.75,.26,.61,.56,1.21,.88,1.79l.24,.39,.12,.2c.06,.11,.13,.23,.21,.32,.22-.11,.43-.23,.63-.36l.3,.39c-.1,.14-.55,.22-.7,.01-.17,.11-.02,.16,.24,.21,.25,.05,.6,.1,.71,.1,.07,.25-.29,.18-.58,.13-.3-.06-.55-.13-.52-.08l.2,.13,.08-.03c.5,.1,.97,.14,1.22,.4-.03,.14-.6,0-.58,.04-.08-.01-.1,0,.06,.07l.24,.26c.31,.05,.6,.08,.87,.1,.71,.27,.4,.36,1.37,.45-.72-.05-.51,.21-.12,.57,.38,.35,.96,.83,.62,.75,1.35,.78,1.63,1.17,1.71,1.53,.3,.09,2.14,1,2.16,1.38-2.13-1.27-2.4-1.26-2.62-1.21-.09,.02-.19,.07-.42,0-.13-.04-.25-.09-.51-.21-.26-.13-.57-.3-.94-.53,1.08,.62,.99,.81,.96,1.02-.01,.2,0,.46,1.49,1.41-.67-.21-1.4-1.08-2.48-1.75,.34,.58-.33,.34-.97-.02-.67-.36-1.28-.81-1.49-.76,.24,.33,.81,.91,1,1.34-.6-.63-1.15-1.24-1.63-1.82,0,.12,1.07,1.77,.09,.56,.19,.28,.51,.7,.45,.74-.68-.58-1.1-.87-1.5-1.09-.4-.21-.78-.36-1.2-.56-.42-.21-.83-.45-1.24-.84-.6-.52-1.12-1.15-1.49-1.93,.12,.52-.12,.38-.38,.2,.12,.19-.27,.34-.38,.56-.21-.44-.41-.88-.59-1.32-.62,.36-1.04-.84-1.55-.48l.36,.19c-.92,.17-.55,1.74-1.21,2.43,1.03-.22,.58,2.11,2.2,1.79,.08,.3-.35,.13-.38,.38,.47-.16,.78-.04,1.18,.46l-.12,.04c.19,.11,.35,.22,.51,.33,.2,.14,.38,.27,.56,.4,.36,.28,.71,.55,1.08,.85,.73,.59,1.55,1.28,2.81,2.08l-.26-.67c.5,.33,.65,.58,.93,.85,.35-.62-1.42-.77-1.05-1.48,.38,.75,1.27,1.22,2.1,1.61,.83,.4,1.61,.74,2.23,1.55,.74,.25-.61-.81,.1-.56l.42,.46-.13-.45c.49,.22,1.04,.77,1.28,1.1-.14-.07-.26,0-.37,0,.95,.64,1.56,.2,1.84,.37-.27-.11-.53-.2-.81-.33,.78,0,1.74,.15,2.61,.13,.88-.01,1.63-.24,2.16-.68l-.33-.13c.42-.3,.73-.36,1.08-.42,.09-.02,.18-.03,.28-.05,.08-.03,.24-.03,.25-.1,.07-.12,.17-.3,.18-.58,0,0,0-.01,0-.02l.03,.03,.04,.05-.02-.04c-.35-.44-.6-.88-.71-1.2,.46,.52,.4-.29,.94,.36-.54-.79-.73-.99-.96-1.17-.23-.18-.47-.36-1.29-.98l.41,.07c-.63-.45-.9-.59-1.45-1.15,.8,.62,.64,.02,1.6,.75,.28-.29-.29-.82-.82-1.23-.53-.42-.95-.71-.11-.68-2.27-1-.19,.65-.83,.25-.36,.03-1.7-.8-1.86-1.05-.33-.3,1.88,.07,.76-1.09,.1,.11,.25,.14,.35,.25,.04-.38-1.43-.89-1.37-1.42-1.31-.31-.81-.77-2-.76l1.41,1.03c-.48-.3-1.25-.58-1.84-.86-.61-.29-1.04-.57-1.24-1.08,.23,.01,.76,.22,1.11,.4-.03-.36-.75-.5-.8-.88,.42-.12,.86,.22,1.35,.64,.49,.43,1.01,.92,1.88,1.27,.05-.18-.57-.53-.95-.77-.38-.24-.58-.41,.17-.31-1-.17-1.26-.46-1.6-.85-.18-.19-.31-.42-.51-.62-.21-.21-.46-.39-.79-.49l.44-.21c-.21-.15-.51-.19-.62-.35l.72-.07c-.78-.12-.17-1.12-.69-1.38,.57,.9-.37,.49-.42,1.07-1.29-.88,.67-1.3-.18-2.5,.13,.16,.07,.8-.27,.61-.05-.29-.01-.73,.15-.99-.46-.89-.4,.32-.83,.03,.41-.53-.41-.38-.72-.78l.46-.15c-.04-1.23-1.09,0-.99-1.19l.75,.29-.3-.51,.56-.02c-.53-.5-.5-.71-.43-1.33-.31,.2-.87,.08-.98-.47,.23-.41,.47,.14,.31-.62,.31,.14,.72,.26,.34,.66,.16,0,.33,.12,.49,.13,.25-.43-.08-.97-.1-1.25,0,.11-.02,.23-.08,.31l-.78-1.04c.17-.19,.32-.06,.48,.06-.08-.22-.3-.36-.36-.69,.4,.06,.8,.02,1.01,.46l-.49-1.02c.16-.08,.44-.55,.59-.42,.23-.57-.79-1.42-.44-2.21-.07-.04-.14-.13-.19-.3,.12-.74,.65-1.35,.2-2.28l.76-.42c-.08-.71-.96,.58-1.09-.61-.11-.85,.64-.23,.87-.49-.29-.45-.91-1.28-.2-1.94,.09,.27-.05,.45-.04,.69Zm1.57-8.83c.06,.19,.29,.61-.02,.67-.49-.32-.2-.41,.02-.67Zm.61-14.2c.16,.13,.09,.34-.08,.58-.04-.17-.03-.36,.08-.58Zm-12.2,17.35s0-.02-.02-.02c.28-.33,.17-.21,.02,.02Zm-.41,.73c.04,.1,.11,.11,.19,.09-.1-.08-.07-.26,.02-.45-.14,.02-.25,.1-.2,.36Zm10.96,27.51l.14-.03c.37,.16,.13,.09-.14,.03Z"></path><path class="cls-5" d="M222.08,106.93c-.08,.05-.17,.06-.26,.08,.08,.07,.17,.08,.26-.08Z"></path><path class="cls-5" d="M218.91,133.65v.03s.05,.02,.08,.03l-.08-.05Z"></path><path class="cls-5" d="M207.94,110.12c.11-.15,.22-.22,.32-.26-.11-.04-.23,.01-.32,.26Z"></path><path class="cls-5" d="M208.62,127.66l-.02-.52c-.03,.24-.15,.3-.25,.41,.11,.01,.29-.05,.27,.11Z"></path><path class="cls-5" d="M204.97,131.54c.05,.08-.01,.16,.04,.24h.23c.02-.32-.13-.57-.26-.24Z"></path><path class="cls-5" d="M206.96,127.8c-.4-.04-.33,.3-.33,.67,0-.02,0-.04,.01-.06,.54,.21,.43-.2,.32-.61Z"></path><path class="cls-5" d="M206.63,128.55c0,.11,0,.23-.05,.33,.22,.08,.07-.12,.05-.33Z"></path><path class="cls-5" d="M208.8,124.43c-.14,.14,.48,.23,.29,.28,.46,.31-.33-1.25-.29-.28Z"></path><polygon class="cls-5" points="205.59 127.83 206.11 127.8 205.75 127.52 205.59 127.83"></polygon><path class="cls-5" d="M206.56,125.08l-.27,.54c.08,.01,.12,.09,.13,.19,.09-.35,.28-.71,.14-.73Z"></path><path class="cls-5" d="M206.43,125.81c-.05,.18-.08,.36-.02,.48,.02-.1,.05-.32,.02-.48Z"></path><polygon class="cls-5" points="205.6 127.01 205.74 126.86 205.86 126.47 205.6 127.01"></polygon><path class="cls-5" d="M208.23,119.03l.03-.66c-.15-.11-.29,.04-.29,.28,.08,.18,.08,.43,.27,.37Z"></path><path class="cls-5" d="M206.41,120.54c.15-.14,.26-.12,.44-.17l-.59-.18,.15,.35Z"></path><path class="cls-5" d="M206.75,118.7c-.15-.11-.24-1.01-.41-.23,.15,.11,.12,.76,.41,.23Z"></path><polygon class="cls-5" points="209.83 109.57 209.8 109.73 210.79 109.95 209.83 109.57"></polygon><path class="cls-5" d="M209.89,100.55c-.53,.78,.52,.41,0,1.01,.17,.25,.42-.47,.56-.23-.11-.49,.18-.85-.56-.78Z"></path><path class="cls-5" d="M210.45,101.33c.01,.08,.04,.18,.07,.28-.02-.15-.04-.23-.07-.28Z"></path><path class="cls-5" d="M212.2,148.78l-.16-.44c-.02,.14-.02,.29-.04,.43h.2Z"></path><path class="cls-5" d="M211.09,148.77l.4-.52c-.19,.08-.39,.16-.59,.23,.08,.05,.24,.13,.19,.28Z"></path><path class="cls-5" d="M222.35,118.44l-.14-.07c-.18,.04-.22,.15-.29,.37l.44-.3Z"></path><polygon class="cls-5" points="220.43 124.78 220.47 124.68 219.85 124.76 220.43 124.78"></polygon><path class="cls-5" d="M220.22,130.09c.06-.2-.04-.46,.02-.67,.04,.46-.75,.63-.02,.67Z"></path></g></g></g><g id="effect"><path class="cls-2" d="M311.49,66.89c6.57,2.57,13.29-2.56,16.93-7.63,2.22-3.09,3.86-6.6,4.8-10.29,.8-3.15,1.22-6.76-.21-9.79-.61-1.31-1.66-2.81-3.17-3.08s-3.22,.34-4.35,1.26c-2.49,2.04-3.12,6.02-2.54,9.03,1.34,6.91,8.69,9.86,14.98,7.95,3.85-1.17,7.09-3.8,9.8-6.69s5.09-6.51,6.72-10.31c.2-.46-2.54-.23-2.86,.51-2.24,5.25-5.74,10-10.28,13.5-2.41,1.85-4.94,2.92-7.99,2.16-2.49-.62-4.78-2.21-6.13-4.4s-1.87-5.08-1.33-7.66c.24-1.15,.67-2.32,1.33-3.3,0,0,1.01-1.15,1.02-1.07l-.29,.09c-.46,.07-.39,.17,.21,.31,.69,.4,1.24,1.16,1.63,1.84,2.79,4.77,.7,11.37-1.51,15.94-1.41,2.91-3.28,5.74-5.65,7.96-2.31,2.16-5.2,3.96-8.4,2.71-.58-.23-1.3-.04-1.86,.17-.11,.04-1.32,.64-.87,.81h0Z"></path><path class="cls-2" d="M334.54,73.45c4.07-2.66,8.41-4.89,12.91-6.71,.57-.23,1.07-.98,.67-1.56-.45-.63-1.37-.5-1.98-.25-4.75,1.92-9.27,4.31-13.55,7.11-.54,.35-.69,1.16-.14,1.57,.63,.47,1.49,.23,2.08-.16h0Z"></path><path class="cls-2" d="M309.82,51.92c-.08-6.21-1.29-12.34-3.65-18.09-.54-1.3-3.42-.48-2.9,.78,2.29,5.56,3.54,11.51,3.61,17.52,.02,1.53,2.95,1.1,2.94-.22h0Z"></path></g></svg>