<svg width="497" height="77" viewBox="0 0 497 77" fill="none" xmlns="http://www.w3.org/2000/svg">
<path d="M20.4815 73.7881C26.9131 72.0519 33.866 71.3574 40.4714 70.6629C44.2955 70.3157 47.9459 70.1421 51.77 69.9684C57.1586 69.6212 62.5471 69.4476 68.1095 69.4476C78.539 69.274 88.7947 69.1003 99.2242 69.1003C119.909 69.1003 140.594 68.9267 161.453 67.885C183.008 66.8433 204.388 65.8016 225.942 64.7599C246.28 63.7182 266.617 62.6764 287.129 61.982C307.466 61.1139 327.978 60.4194 348.315 59.2041C369.174 57.8151 390.033 57.1206 410.892 56.5998C420.8 56.2525 430.708 55.9053 440.616 54.8636C445.831 54.3427 450.872 53.6483 456.086 52.9538C461.127 52.2593 466.168 51.9121 471.209 51.3912C475.902 50.8704 480.422 51.044 485.115 51.3912C488.418 51.044 491.025 49.3078 492.763 46.3563C493.633 44.4465 494.675 42.7103 495.545 40.8005C497.283 35.9391 498.152 30.9042 497.978 25.6956C497.978 20.487 497.283 15.4521 495.545 10.5908C494.675 8.68095 493.633 6.94476 492.763 5.03495C491.025 2.08343 488.592 0.520857 485.115 0C482.508 0.173619 480.074 0.520857 477.467 0.694476C475.207 0.868095 472.774 0.868095 470.514 0.868095C465.473 0.868095 460.606 1.04171 455.565 1.21533C445.135 1.56257 434.88 2.25705 424.45 2.60428C404.287 3.12514 384.123 3.29876 364.133 4.51409C353.356 5.20857 342.579 5.90304 331.802 6.4239C322.067 6.94476 312.159 7.292 302.425 7.63923C281.566 8.33371 260.707 9.37542 239.848 10.4171C219.337 11.4589 198.652 12.5006 178.141 13.5423C166.842 14.0631 155.37 14.7576 144.071 15.2785C133.815 15.7993 123.733 15.7993 113.478 15.9729C92.6188 16.1466 71.7598 16.3202 50.9009 17.5355C45.6861 17.8828 40.6452 18.23 35.6043 18.9245C31.4325 19.4453 27.2607 20.1398 23.2627 21.0079C20.1339 21.7024 17.005 22.7441 14.05 23.7858C12.3118 24.3067 10.5735 25.3484 9.0091 26.3901C5.88026 28.8207 3.79436 31.9459 2.57759 35.7655C-0.203608 43.0575 -0.551258 51.7384 0.665516 59.3777C1.36081 63.8918 2.92524 68.2322 5.35878 72.0519C6.57556 73.2672 7.79233 74.4825 9.0091 75.6979C11.7903 77.434 14.5715 77.434 17.1789 75.6979C17.8742 75.0034 19.2648 74.3089 20.4815 73.7881Z" fill="#D4C3AB"/>
</svg>
