<?xml version="1.0" encoding="UTF-8"?>
<svg id="Layer_2" data-name="Layer 2" xmlns="http://www.w3.org/2000/svg" viewBox="0 0 455.17 454.97">
  <g id="Layer_1-2" data-name="Layer 1">
    <path d="M213.6.55c177.34-12.17,298.53,179.38,214.11,335.9-78.02,144.67-282.39,160.06-381.5,28.71C-63.34,219.97,33.66,12.9,213.6.55ZM217.51,18.22C67.8,26.04-26.9,185.21,39.73,320.57c73.16,148.62,284,156.81,368.35,13.94C492.56,191.43,382.98,9.58,217.51,18.22Z"/>
    <path d="M216.81,52.71c136.58-9.37,229.91,138.15,164.9,258.7-60.09,111.42-217.49,123.27-293.81,22.11C3.53,221.7,78.23,62.22,216.81,52.71ZM219.83,66.32c-115.3,6.02-188.24,128.61-136.92,232.85,56.34,114.46,218.72,120.77,283.69,10.73,65.06-110.19-19.33-250.24-146.77-243.59Z"/>
    <path d="M229.98,341.71h-8.16c-13.86,0-25.13-11.27-25.13-25.13v-178.18c0-13.86,11.27-25.13,25.13-25.13h8.16c13.86,0,25.13,11.27,25.13,25.13v178.18c0,13.86-11.27,25.13-25.13,25.13ZM221.82,125.05c-7.36,0-13.35,5.99-13.35,13.35v178.18c0,7.36,5.99,13.35,13.35,13.35h8.16c7.36,0,13.35-5.99,13.35-13.35v-178.18c0-7.36-5.99-13.35-13.35-13.35h-8.16Z"/>
  </g>
</svg>