<?xml version="1.0" encoding="UTF-8"?>
<svg id="Layer_2" data-name="Layer 2" xmlns="http://www.w3.org/2000/svg" viewBox="0 0 455.17 454.97">
  <g id="Layer_1-2" data-name="Layer 1">
    <path d="M213.6.55c177.34-12.17,298.53,179.38,214.11,335.9-78.02,144.67-282.39,160.06-381.5,28.71C-63.34,219.97,33.66,12.9,213.6.55ZM217.51,18.22C67.8,26.04-26.9,185.21,39.73,320.57c73.16,148.62,284,156.81,368.35,13.94C492.56,191.43,382.98,9.58,217.51,18.22Z"/>
    <path d="M238.22,211.51c6.7,9.4,10.02,10.46,11.01,25.27l69.83,69.65c4.66,10.03-4.8,17.78-13.84,11.85l-68.52-68.96c-16.06-1.71-33.07-7.42-27.67-27.43,2.21-8.21,10.57-9.66,10.73-16.74.08-3.79-1.89-7.53-1.93-11.62-.19-18.49-2.87-58.5.53-74.28,2.43-11.24,17.53-11.35,19.24,3.46,2.29,19.9.27,49.81.06,70.83-.07,6.94-4.38,11.04.57,17.98Z"/>
  </g>
</svg>